<svg width="927" height="114" viewBox="0 0 927 114" fill="none" xmlns="http://www.w3.org/2000/svg">
<path d="M71.7879 96.4L0.387891 69.25V49.75L71.7879 22.6V41.35L7.43789 64.75V54.25L71.7879 77.65V96.4ZM79.5328 112L126.333 6.99999H150.333L197.283 112H171.783L133.383 19.3H142.983L104.433 112H79.5328ZM102.933 89.5L109.383 71.05H163.383L169.983 89.5H102.933ZM254.227 113.2C247.127 113.2 241.027 111.7 235.927 108.7C230.827 105.7 226.927 101.15 224.227 95.05C221.527 88.85 220.177 81.05 220.177 71.65C220.177 62.15 221.577 54.35 224.377 48.25C227.277 42.15 231.277 37.6 236.377 34.6C241.477 31.6 247.427 30.1 254.227 30.1C261.827 30.1 268.627 31.8 274.627 35.2C280.727 38.6 285.527 43.4 289.027 49.6C292.627 55.8 294.427 63.15 294.427 71.65C294.427 80.05 292.627 87.35 289.027 93.55C285.527 99.75 280.727 104.6 274.627 108.1C268.627 111.5 261.827 113.2 254.227 113.2ZM206.527 112V0.699993H229.927V47.65L228.427 71.5L228.877 95.5V112H206.527ZM250.177 94C254.077 94 257.527 93.1 260.527 91.3C263.627 89.5 266.077 86.95 267.877 83.65C269.777 80.25 270.727 76.25 270.727 71.65C270.727 66.95 269.777 62.95 267.877 59.65C266.077 56.35 263.627 53.8 260.527 52C257.527 50.2 254.077 49.3 250.177 49.3C246.277 49.3 242.777 50.2 239.677 52C236.577 53.8 234.127 56.35 232.327 59.65C230.527 62.95 229.627 66.95 229.627 71.65C229.627 76.25 230.527 80.25 232.327 83.65C234.127 86.95 236.577 89.5 239.677 91.3C242.777 93.1 246.277 94 250.177 94ZM348.491 113.2C339.891 113.2 332.241 111.4 325.541 107.8C318.941 104.2 313.691 99.3 309.791 93.1C305.991 86.8 304.091 79.65 304.091 71.65C304.091 63.55 305.991 56.4 309.791 50.2C313.691 43.9 318.941 39 325.541 35.5C332.241 31.9 339.891 30.1 348.491 30.1C356.991 30.1 364.591 31.9 371.291 35.5C377.991 39 383.241 43.85 387.041 50.05C390.841 56.25 392.741 63.45 392.741 71.65C392.741 79.65 390.841 86.8 387.041 93.1C383.241 99.3 377.991 104.2 371.291 107.8C364.591 111.4 356.991 113.2 348.491 113.2ZM348.491 94C352.391 94 355.891 93.1 358.991 91.3C362.091 89.5 364.541 86.95 366.341 83.65C368.141 80.25 369.041 76.25 369.041 71.65C369.041 66.95 368.141 62.95 366.341 59.65C364.541 56.35 362.091 53.8 358.991 52C355.891 50.2 352.391 49.3 348.491 49.3C344.591 49.3 341.091 50.2 337.991 52C334.891 53.8 332.391 56.35 330.491 59.65C328.691 62.95 327.791 66.95 327.791 71.65C327.791 76.25 328.691 80.25 330.491 83.65C332.391 86.95 334.891 89.5 337.991 91.3C341.091 93.1 344.591 94 348.491 94ZM442.432 113.2C435.732 113.2 429.732 111.9 424.432 109.3C419.232 106.7 415.182 102.75 412.282 97.45C409.382 92.05 407.932 85.2 407.932 76.9V31.3H431.332V73.45C431.332 80.15 432.732 85.1 435.532 88.3C438.432 91.4 442.482 92.95 447.682 92.95C451.282 92.95 454.482 92.2 457.282 90.7C460.082 89.1 462.282 86.7 463.882 83.5C465.482 80.2 466.282 76.1 466.282 71.2V31.3H489.682V112H467.482V89.8L471.532 96.25C468.832 101.85 464.832 106.1 459.532 109C454.332 111.8 448.632 113.2 442.432 113.2ZM544.361 113.2C534.861 113.2 527.461 110.8 522.161 106C516.861 101.1 514.211 93.85 514.211 84.25V13.45H537.611V83.95C537.611 87.35 538.511 90 540.311 91.9C542.111 93.7 544.561 94.6 547.661 94.6C551.361 94.6 554.511 93.6 557.111 91.6L563.411 108.1C561.011 109.8 558.111 111.1 554.711 112C551.411 112.8 547.961 113.2 544.361 113.2ZM501.761 51.1V33.1H557.711V51.1H501.761ZM620.677 112V6.99999H640.777L685.477 81.1H674.827L718.777 6.99999H738.727L739.027 112H716.227L716.077 41.95H720.277L685.177 100.9H674.227L638.377 41.95H643.477V112H620.677ZM802.338 113.2C793.138 113.2 785.038 111.4 778.038 107.8C771.138 104.2 765.788 99.3 761.988 93.1C758.188 86.8 756.288 79.65 756.288 71.65C756.288 63.55 758.138 56.4 761.838 50.2C765.638 43.9 770.788 39 777.288 35.5C783.788 31.9 791.138 30.1 799.338 30.1C807.238 30.1 814.338 31.8 820.638 35.2C827.038 38.5 832.088 43.3 835.788 49.6C839.488 55.8 841.338 63.25 841.338 71.95C841.338 72.85 841.288 73.9 841.188 75.1C841.088 76.2 840.988 77.25 840.888 78.25H775.338V64.6H828.588L819.588 68.65C819.588 64.45 818.738 60.8 817.038 57.7C815.338 54.6 812.988 52.2 809.988 50.5C806.988 48.7 803.488 47.8 799.488 47.8C795.488 47.8 791.938 48.7 788.838 50.5C785.838 52.2 783.488 54.65 781.788 57.85C780.088 60.95 779.238 64.65 779.238 68.95V72.55C779.238 76.95 780.188 80.85 782.088 84.25C784.088 87.55 786.838 90.1 790.338 91.9C793.938 93.6 798.138 94.45 802.938 94.45C807.238 94.45 810.988 93.8 814.188 92.5C817.488 91.2 820.488 89.25 823.188 86.65L835.638 100.15C831.938 104.35 827.288 107.6 821.688 109.9C816.088 112.1 809.638 113.2 802.338 113.2ZM855.417 96.4V77.65L919.767 54.25V64.75L855.417 41.35V22.6L926.817 49.75V69.25L855.417 96.4Z" fill="#151515"/>
</svg>
