<svg width="239" height="186" viewBox="0 0 239 186" fill="none" xmlns="http://www.w3.org/2000/svg">
<path d="M-25.1613 45.6617L3.94341 37.8632L-4.18012 7.54576L-17.25 -0.000155291L-9.12651 30.3172L-38.2312 38.1158L-25.1613 45.6617Z" fill="#151515"/>
<path d="M6.82149 64.1271L35.9262 56.3285L27.6489 25.9223L14.7328 18.4652L22.8563 48.7826L-6.24842 56.5812L6.82149 64.1271Z" fill="#151515"/>
<path d="M38.6506 82.5035L67.7553 74.705L59.6318 44.3876L46.5619 36.8416L54.6854 67.159L25.5807 74.9576L38.6506 82.5035Z" fill="#151515"/>
<path d="M70.6334 100.969L99.7381 93.1703L91.4608 62.7641L78.5447 55.307L86.6682 85.6244L57.5635 93.423L70.6334 100.969Z" fill="#151515"/>
<path d="M102.924 119.612L131.875 111.724L123.751 81.407L110.835 73.9499L118.959 104.267L89.8539 112.066L102.924 119.612Z" fill="#151515"/>
<path d="M134.753 137.988L163.858 130.19L155.734 99.8723L142.664 92.3264L150.788 122.644L121.683 130.442L134.753 137.988Z" fill="#151515"/>
<path d="M166.736 156.454L195.687 148.566L187.563 118.249L174.647 110.792L182.771 141.109L153.666 148.908L166.736 156.454Z" fill="#151515"/>
<path d="M198.565 174.83L227.67 167.031L219.546 136.714L206.476 129.168L214.6 159.486L185.495 167.284L198.565 174.83Z" fill="#151515"/>
</svg>
