<svg width="785" height="109" viewBox="0 0 785 109" fill="none" xmlns="http://www.w3.org/2000/svg">
<path d="M72.1258 91.4L0.72583 64.2499V44.75L72.1258 17.6V36.3499L7.77583 59.75V49.25L72.1258 72.6499V91.4Z" fill="#151515"/>
<path d="M143.921 108.8C135.821 108.8 128.271 107.5 121.271 104.9C114.371 102.2 108.371 98.4 103.271 93.5C98.1708 88.6 94.1708 82.85 91.2708 76.25C88.4708 69.65 87.0708 62.4 87.0708 54.5C87.0708 46.6 88.4708 39.3499 91.2708 32.7499C94.1708 26.1499 98.1708 20.3999 103.271 15.5C108.471 10.5999 114.521 6.84995 121.421 4.24994C128.321 1.54995 135.871 0.199951 144.071 0.199951C153.171 0.199951 161.371 1.79995 168.671 4.99995C176.071 8.09995 182.271 12.6999 187.271 18.8L171.671 33.2C168.071 29.0999 164.071 26.0499 159.671 24.0499C155.271 21.95 150.471 20.9 145.271 20.9C140.371 20.9 135.871 21.7 131.771 23.2999C127.671 24.8999 124.121 27.1999 121.121 30.1999C118.121 33.1999 115.771 36.75 114.071 40.85C112.471 44.95 111.671 49.5 111.671 54.5C111.671 59.5 112.471 64.05 114.071 68.15C115.771 72.25 118.121 75.7999 121.121 78.7999C124.121 81.7999 127.671 84.1 131.771 85.7C135.871 87.3 140.371 88.1 145.271 88.1C150.471 88.1 155.271 87.1 159.671 85.1C164.071 83 168.071 79.85 171.671 75.65L187.271 90.0499C182.271 96.15 176.071 100.8 168.671 104C161.371 107.2 153.121 108.8 143.921 108.8Z" fill="#151515"/>
<path d="M237.647 108.2C229.047 108.2 221.397 106.4 214.697 102.8C208.097 99.1999 202.847 94.3 198.947 88.1C195.147 81.8 193.247 74.6499 193.247 66.6499C193.247 58.5499 195.147 51.3999 198.947 45.1999C202.847 38.8999 208.097 33.9999 214.697 30.4999C221.397 26.8999 229.047 25.1 237.647 25.1C246.147 25.1 253.747 26.8999 260.447 30.4999C267.147 33.9999 272.397 38.8499 276.197 45.0499C279.997 51.25 281.897 58.4499 281.897 66.6499C281.897 74.6499 279.997 81.8 276.197 88.1C272.397 94.3 267.147 99.1999 260.447 102.8C253.747 106.4 246.147 108.2 237.647 108.2ZM237.647 89C241.547 89 245.047 88.1 248.147 86.2999C251.247 84.5 253.697 81.9499 255.497 78.6499C257.297 75.2499 258.197 71.2499 258.197 66.6499C258.197 61.9499 257.297 57.95 255.497 54.65C253.697 51.3499 251.247 48.7999 248.147 47C245.047 45.1999 241.547 44.2999 237.647 44.2999C233.747 44.2999 230.247 45.1999 227.147 47C224.047 48.7999 221.547 51.3499 219.647 54.65C217.847 57.95 216.947 61.9499 216.947 66.6499C216.947 71.2499 217.847 75.2499 219.647 78.6499C221.547 81.9499 224.047 84.5 227.147 86.2999C230.247 88.1 233.747 89 237.647 89Z" fill="#151515"/>
<path d="M346.588 25.1C352.988 25.1 358.688 26.4 363.688 28.9999C368.788 31.4999 372.788 35.3999 375.688 40.6999C378.588 45.8999 380.038 52.6 380.038 60.7999V107H356.638V64.3999C356.638 57.8999 355.188 53.1 352.288 50C349.488 46.9 345.488 45.35 340.288 45.35C336.588 45.35 333.238 46.15 330.238 47.75C327.338 49.2499 325.038 51.5999 323.338 54.7999C321.738 58 320.938 62.1 320.938 67.1V107H297.538V26.2999H319.888V48.6499L315.688 41.9C318.588 36.4999 322.738 32.3499 328.138 29.4499C333.538 26.55 339.688 25.1 346.588 25.1Z" fill="#151515"/>
<path d="M434.249 108.2C424.749 108.2 417.349 105.8 412.049 101C406.749 96.1 404.099 88.85 404.099 79.25V8.44995H427.499V78.95C427.499 82.35 428.399 85 430.199 86.9C431.999 88.7 434.449 89.6 437.549 89.6C441.249 89.6 444.399 88.6 446.999 86.6L453.299 103.1C450.899 104.8 447.999 106.1 444.599 107C441.299 107.8 437.849 108.2 434.249 108.2ZM391.649 46.0999V28.0999H447.599V46.0999H391.649Z" fill="#151515"/>
<path d="M515.935 107V91.25L514.435 87.7999V59.6C514.435 54.6 512.885 50.6999 509.785 47.8999C506.785 45.0999 502.135 43.7 495.835 43.7C491.535 43.7 487.285 44.3999 483.085 45.7999C478.985 47.1 475.485 48.9 472.585 51.2L464.185 34.8499C468.585 31.7499 473.885 29.3499 480.085 27.6499C486.285 25.95 492.585 25.1 498.985 25.1C511.285 25.1 520.835 28 527.635 33.7999C534.435 39.6 537.835 48.65 537.835 60.95V107H515.935ZM491.335 108.2C485.035 108.2 479.635 107.15 475.135 105.05C470.635 102.85 467.185 99.9 464.785 96.2C462.385 92.5 461.185 88.35 461.185 83.75C461.185 78.95 462.335 74.7499 464.635 71.1499C467.035 67.5499 470.785 64.75 475.885 62.75C480.985 60.65 487.635 59.6 495.835 59.6H517.285V73.25H498.385C492.885 73.25 489.085 74.15 486.985 75.95C484.985 77.75 483.985 80 483.985 82.7C483.985 85.7 485.135 88.0999 487.435 89.8999C489.835 91.5999 493.085 92.45 497.185 92.45C501.085 92.45 504.585 91.55 507.685 89.75C510.785 87.85 513.035 85.1 514.435 81.5L518.035 92.2999C516.335 97.4999 513.235 101.45 508.735 104.15C504.235 106.85 498.435 108.2 491.335 108.2Z" fill="#151515"/>
<path d="M598.599 108.2C589.899 108.2 582.149 106.45 575.349 102.95C568.549 99.35 563.199 94.4 559.299 88.1C555.499 81.8 553.599 74.6499 553.599 66.6499C553.599 58.5499 555.499 51.3999 559.299 45.1999C563.199 38.8999 568.549 33.9999 575.349 30.4999C582.149 26.8999 589.899 25.1 598.599 25.1C607.099 25.1 614.499 26.8999 620.799 30.4999C627.099 33.9999 631.749 39.05 634.749 45.65L616.599 55.4C614.499 51.6 611.849 48.7999 608.649 47C605.549 45.1999 602.149 44.2999 598.449 44.2999C594.449 44.2999 590.849 45.1999 587.649 47C584.449 48.7999 581.899 51.3499 579.999 54.65C578.199 57.95 577.299 61.9499 577.299 66.6499C577.299 71.3499 578.199 75.3499 579.999 78.6499C581.899 81.9499 584.449 84.5 587.649 86.2999C590.849 88.1 594.449 89 598.449 89C602.149 89 605.549 88.15 608.649 86.45C611.849 84.65 614.499 81.8 616.599 77.9L634.749 87.7999C631.749 94.3 627.099 99.35 620.799 102.95C614.499 106.45 607.099 108.2 598.599 108.2Z" fill="#151515"/>
<path d="M682.394 108.2C672.894 108.2 665.494 105.8 660.194 101C654.894 96.1 652.244 88.85 652.244 79.25V8.44995H675.644V78.95C675.644 82.35 676.544 85 678.344 86.9C680.144 88.7 682.594 89.6 685.694 89.6C689.394 89.6 692.544 88.6 695.144 86.6L701.444 103.1C699.044 104.8 696.144 106.1 692.744 107C689.444 107.8 685.994 108.2 682.394 108.2ZM639.794 46.0999V28.0999H695.744V46.0999H639.794Z" fill="#151515"/>
<path d="M713.079 91.4V72.6499L777.429 49.25V59.75L713.079 36.3499V17.6L784.479 44.75V64.2499L713.079 91.4Z" fill="#151515"/>
</svg>
