<svg width="328" height="112" viewBox="0 0 328 112" fill="none" xmlns="http://www.w3.org/2000/svg">
<path d="M10.3533 9.0443L6.51637 5.20732L10.3533 1.37033C10.7188 1.0049 10.7188 0.639496 10.3533 0.27407C9.98791 -0.0913565 9.6225 -0.0913565 9.25707 0.27407L5.42008 4.11103L1.58313 0.27407C1.2177 -0.0913565 0.852264 -0.0913565 0.486838 0.27407C0.121412 0.639496 0.121412 1.0049 0.486838 1.37033L4.32382 5.20732L0.486838 9.0443C0.121412 9.40973 0.121412 9.77514 0.486838 10.1406C0.852264 10.506 1.2177 10.506 1.58313 10.1406L5.42008 6.30361L9.25707 10.1406C9.6225 10.506 9.98791 10.506 10.3533 10.1406C10.7188 9.95785 10.7188 9.40973 10.3533 9.0443Z" fill="#191919"/>
<path d="M42.1454 9.0443L38.3084 5.20732L42.1454 1.37033C42.5108 1.0049 42.5108 0.639496 42.1454 0.27407C41.78 -0.0913565 41.4145 -0.0913565 41.0491 0.27407L37.2122 4.11103L33.3752 0.27407C33.0098 -0.0913565 32.6443 -0.0913565 32.2789 0.27407C31.9135 0.639496 31.9135 1.0049 32.2789 1.37033L36.1159 5.20732L32.2789 9.0443C31.9135 9.40973 31.9135 9.77514 32.2789 10.1406C32.6443 10.506 33.0098 10.506 33.3752 10.1406L37.2122 6.30361L41.0491 10.1406C41.4145 10.506 41.78 10.506 42.1454 10.1406C42.5108 9.95785 42.5108 9.40973 42.1454 9.0443Z" fill="#191919"/>
<path d="M73.7548 9.0443L69.9178 5.20732L73.7548 1.37033C74.1202 1.0049 74.1202 0.639496 73.7548 0.27407C73.3894 -0.0913565 73.0239 -0.0913565 72.6585 0.27407L68.8215 4.11103L64.9846 0.27407C64.6191 -0.0913565 64.2537 -0.0913565 63.8883 0.27407C63.5228 0.639496 63.5228 1.0049 63.8883 1.37033L67.7253 5.20732L63.8883 9.0443C63.5228 9.40973 63.5228 9.77514 63.8883 10.1406C64.2537 10.506 64.6191 10.506 64.9846 10.1406L68.8215 6.30361L72.6585 10.1406C73.0239 10.506 73.3894 10.506 73.7548 10.1406C74.1202 9.95785 74.1202 9.40973 73.7548 9.0443Z" fill="#191919"/>
<path d="M105.547 9.0443L101.71 5.20732L105.547 1.37033C105.912 1.0049 105.912 0.639496 105.547 0.27407C105.181 -0.0913565 104.816 -0.0913565 104.45 0.27407L100.614 4.11103L96.7766 0.27407C96.4111 -0.0913565 96.0457 -0.0913565 95.6803 0.27407C95.3149 0.639496 95.3149 1.0049 95.6803 1.37033L99.5172 5.20732L95.6803 9.0443C95.3149 9.40973 95.3149 9.77514 95.6803 10.1406C96.0457 10.506 96.4111 10.506 96.7766 10.1406L100.614 6.30361L104.45 10.1406C104.816 10.506 105.181 10.506 105.547 10.1406C105.912 9.95785 105.912 9.40973 105.547 9.0443Z" fill="#191919"/>
<path d="M137.339 9.0443L133.502 5.20732L137.339 1.37033C137.704 1.0049 137.704 0.639496 137.339 0.27407C136.973 -0.0913565 136.608 -0.0913565 136.243 0.27407L132.406 4.11103L128.569 0.27407C128.203 -0.0913565 127.838 -0.0913565 127.472 0.27407C127.107 0.639496 127.107 1.0049 127.472 1.37033L131.309 5.20732L127.472 9.0443C127.107 9.40973 127.107 9.77514 127.472 10.1406C127.838 10.506 128.203 10.506 128.569 10.1406L132.406 6.30361L136.243 10.1406C136.608 10.506 136.973 10.506 137.339 10.1406C137.704 9.95785 137.704 9.40973 137.339 9.0443Z" fill="#191919"/>
<path d="M168.948 9.0443L165.111 5.20732L168.948 1.37033C169.314 1.0049 169.314 0.639496 168.948 0.27407C168.583 -0.0913565 168.217 -0.0913565 167.852 0.27407L164.015 4.11103L160.178 0.27407C159.813 -0.0913565 159.447 -0.0913565 159.082 0.27407C158.716 0.639496 158.716 1.0049 159.082 1.37033L162.919 5.20732L159.082 9.0443C158.716 9.40973 158.716 9.77514 159.082 10.1406C159.447 10.506 159.813 10.506 160.178 10.1406L164.015 6.30361L167.852 10.1406C168.217 10.506 168.583 10.506 168.948 10.1406C169.314 9.95785 169.314 9.40973 168.948 9.0443Z" fill="#191919"/>
<path d="M200.74 9.0443L196.903 5.20732L200.74 1.37033C201.106 1.0049 201.106 0.639496 200.74 0.27407C200.375 -0.0913565 200.01 -0.0913565 199.644 0.27407L195.807 4.11103L191.97 0.27407C191.605 -0.0913565 191.239 -0.0913565 190.874 0.27407C190.508 0.639496 190.508 1.0049 190.874 1.37033L194.711 5.20732L190.874 9.0443C190.508 9.40973 190.508 9.77514 190.874 10.1406C191.239 10.506 191.605 10.506 191.97 10.1406L195.807 6.30361L199.644 10.1406C200.01 10.506 200.375 10.506 200.74 10.1406C201.106 9.95785 201.106 9.40973 200.74 9.0443Z" fill="#191919"/>
<path d="M232.532 9.0443L228.695 5.20732L232.532 1.37033C232.898 1.0049 232.898 0.639496 232.532 0.27407C232.167 -0.0913565 231.801 -0.0913565 231.436 0.27407L227.599 4.11103L223.762 0.27407C223.397 -0.0913565 223.031 -0.0913565 222.666 0.27407C222.3 0.639496 222.3 1.0049 222.666 1.37033L226.503 5.20732L222.666 9.0443C222.3 9.40973 222.3 9.77514 222.666 10.1406C223.031 10.506 223.397 10.506 223.762 10.1406L227.599 6.30361L231.436 10.1406C231.801 10.506 232.167 10.506 232.532 10.1406C232.898 9.95785 232.898 9.40973 232.532 9.0443Z" fill="#191919"/>
<path d="M264.142 9.0443L260.305 5.20732L264.142 1.37033C264.507 1.0049 264.507 0.639496 264.142 0.27407C263.776 -0.0913565 263.411 -0.0913565 263.046 0.27407L259.209 4.11103L255.372 0.27407C255.006 -0.0913565 254.641 -0.0913565 254.275 0.27407C253.91 0.639496 253.91 1.0049 254.275 1.37033L258.112 5.20732L254.275 9.0443C253.91 9.40973 253.91 9.77514 254.275 10.1406C254.641 10.506 255.006 10.506 255.372 10.1406L259.209 6.30361L263.046 10.1406C263.411 10.506 263.776 10.506 264.142 10.1406C264.507 9.95785 264.507 9.40973 264.142 9.0443Z" fill="#191919"/>
<path d="M295.934 9.0443L292.097 5.20732L295.934 1.37033C296.299 1.0049 296.299 0.639496 295.934 0.27407C295.568 -0.0913565 295.203 -0.0913565 294.838 0.27407L291.001 4.11103L287.164 0.27407C286.798 -0.0913565 286.433 -0.0913565 286.067 0.27407C285.702 0.639496 285.702 1.0049 286.067 1.37033L289.904 5.20732L286.067 9.0443C285.702 9.40973 285.702 9.77514 286.067 10.1406C286.433 10.506 286.798 10.506 287.164 10.1406L291.001 6.30361L294.838 10.1406C295.203 10.506 295.568 10.506 295.934 10.1406C296.299 9.95785 296.299 9.40973 295.934 9.0443Z" fill="#191919"/>
<path d="M327.726 9.0443L323.889 5.20732L327.726 1.37033C328.091 1.0049 328.091 0.639496 327.726 0.27407C327.36 -0.0913565 326.995 -0.0913565 326.63 0.27407L322.793 4.11103L318.956 0.27407C318.59 -0.0913565 318.225 -0.0913565 317.859 0.27407C317.494 0.639496 317.494 1.0049 317.859 1.37033L321.696 5.20732L317.859 9.0443C317.494 9.40973 317.494 9.77514 317.859 10.1406C318.225 10.506 318.59 10.506 318.956 10.1406L322.793 6.30361L326.63 10.1406C326.995 10.506 327.36 10.506 327.726 10.1406C328.091 9.77514 328.091 9.40973 327.726 9.0443Z" fill="#191919"/>
<path d="M10.3533 34.4413L6.51637 30.6043L10.3533 26.7673C10.7188 26.4019 10.7188 26.0365 10.3533 25.671C9.98791 25.3056 9.6225 25.3056 9.25707 25.671L5.42008 29.508L1.58313 25.671C1.2177 25.3056 0.852264 25.3056 0.486838 25.671C0.121412 26.0365 0.121412 26.4019 0.486838 26.7673L4.32382 30.6043L0.486838 34.4413C0.121412 34.8067 0.121412 35.1721 0.486838 35.5376C0.852264 35.903 1.2177 35.903 1.58313 35.5376L5.42008 31.7006L9.25707 35.5376C9.6225 35.903 9.98791 35.903 10.3533 35.5376C10.7188 35.1721 10.7188 34.624 10.3533 34.4413Z" fill="#191919"/>
<path d="M42.1454 34.4413L38.3084 30.6043L42.1454 26.7673C42.5108 26.4019 42.5108 26.0365 42.1454 25.671C41.78 25.3056 41.4145 25.3056 41.0491 25.671L37.2122 29.508L33.3752 25.671C33.0098 25.3056 32.6443 25.3056 32.2789 25.671C31.9135 26.0365 31.9135 26.4019 32.2789 26.7673L36.1159 30.6043L32.2789 34.4413C31.9135 34.8067 31.9135 35.1721 32.2789 35.5376C32.6443 35.903 33.0098 35.903 33.3752 35.5376L37.2122 31.7006L41.0491 35.5376C41.4145 35.903 41.78 35.903 42.1454 35.5376C42.5108 35.1721 42.5108 34.624 42.1454 34.4413Z" fill="#191919"/>
<path d="M73.7548 34.4413L69.9178 30.6043L73.7548 26.7673C74.1202 26.4019 74.1202 26.0365 73.7548 25.671C73.3894 25.3056 73.0239 25.3056 72.6585 25.671L68.8215 29.508L64.9846 25.671C64.6191 25.3056 64.2537 25.3056 63.8883 25.671C63.5228 26.0365 63.5228 26.4019 63.8883 26.7673L67.7253 30.6043L63.8883 34.4413C63.5228 34.8067 63.5228 35.1721 63.8883 35.5376C64.2537 35.903 64.6191 35.903 64.9846 35.5376L68.8215 31.7006L72.6585 35.5376C73.0239 35.903 73.3894 35.903 73.7548 35.5376C74.1202 35.1721 74.1202 34.624 73.7548 34.4413Z" fill="#191919"/>
<path d="M105.547 34.4413L101.71 30.6043L105.547 26.7673C105.912 26.4019 105.912 26.0365 105.547 25.671C105.181 25.3056 104.816 25.3056 104.45 25.671L100.614 29.508L96.7766 25.671C96.4111 25.3056 96.0457 25.3056 95.6803 25.671C95.3149 26.0365 95.3149 26.4019 95.6803 26.7673L99.5172 30.6043L95.6803 34.4413C95.3149 34.8067 95.3149 35.1721 95.6803 35.5376C96.0457 35.903 96.4111 35.903 96.7766 35.5376L100.614 31.7006L104.45 35.5376C104.816 35.903 105.181 35.903 105.547 35.5376C105.912 35.1721 105.912 34.624 105.547 34.4413Z" fill="#191919"/>
<path d="M137.339 34.4413L133.502 30.6043L137.339 26.7673C137.704 26.4019 137.704 26.0365 137.339 25.671C136.973 25.3056 136.608 25.3056 136.243 25.671L132.406 29.508L128.569 25.671C128.203 25.3056 127.838 25.3056 127.472 25.671C127.107 26.0365 127.107 26.4019 127.472 26.7673L131.309 30.6043L127.472 34.4413C127.107 34.8067 127.107 35.1721 127.472 35.5376C127.838 35.903 128.203 35.903 128.569 35.5376L132.406 31.7006L136.243 35.5376C136.608 35.903 136.973 35.903 137.339 35.5376C137.704 35.1721 137.704 34.624 137.339 34.4413Z" fill="#191919"/>
<path d="M168.948 34.4413L165.111 30.6043L168.948 26.7673C169.314 26.4019 169.314 26.0365 168.948 25.671C168.583 25.3056 168.217 25.3056 167.852 25.671L164.015 29.508L160.178 25.671C159.813 25.3056 159.447 25.3056 159.082 25.671C158.716 26.0365 158.716 26.4019 159.082 26.7673L162.919 30.6043L159.082 34.4413C158.716 34.8067 158.716 35.1721 159.082 35.5376C159.447 35.903 159.813 35.903 160.178 35.5376L164.015 31.7006L167.852 35.5376C168.217 35.903 168.583 35.903 168.948 35.5376C169.314 35.1721 169.314 34.624 168.948 34.4413Z" fill="#191919"/>
<path d="M200.74 34.4413L196.903 30.6043L200.74 26.7673C201.106 26.4019 201.106 26.0365 200.74 25.671C200.375 25.3056 200.01 25.3056 199.644 25.671L195.807 29.508L191.97 25.671C191.605 25.3056 191.239 25.3056 190.874 25.671C190.508 26.0365 190.508 26.4019 190.874 26.7673L194.711 30.6043L190.874 34.4413C190.508 34.8067 190.508 35.1721 190.874 35.5376C191.239 35.903 191.605 35.903 191.97 35.5376L195.807 31.7006L199.644 35.5376C200.01 35.903 200.375 35.903 200.74 35.5376C201.106 35.1721 201.106 34.624 200.74 34.4413Z" fill="#191919"/>
<path d="M232.532 34.4413L228.695 30.6043L232.532 26.7673C232.898 26.4019 232.898 26.0365 232.532 25.671C232.167 25.3056 231.801 25.3056 231.436 25.671L227.599 29.508L223.762 25.671C223.397 25.3056 223.031 25.3056 222.666 25.671C222.3 26.0365 222.3 26.4019 222.666 26.7673L226.503 30.6043L222.666 34.4413C222.3 34.8067 222.3 35.1721 222.666 35.5376C223.031 35.903 223.397 35.903 223.762 35.5376L227.599 31.7006L231.436 35.5376C231.801 35.903 232.167 35.903 232.532 35.5376C232.898 35.1721 232.898 34.624 232.532 34.4413Z" fill="#191919"/>
<path d="M264.142 34.4413L260.305 30.6043L264.142 26.7673C264.507 26.4019 264.507 26.0365 264.142 25.671C263.776 25.3056 263.411 25.3056 263.046 25.671L259.209 29.508L255.372 25.671C255.006 25.3056 254.641 25.3056 254.275 25.671C253.91 26.0365 253.91 26.4019 254.275 26.7673L258.112 30.6043L254.275 34.4413C253.91 34.8067 253.91 35.1721 254.275 35.5376C254.641 35.903 255.006 35.903 255.372 35.5376L259.209 31.7006L263.046 35.5376C263.411 35.903 263.776 35.903 264.142 35.5376C264.507 35.1721 264.507 34.624 264.142 34.4413Z" fill="#191919"/>
<path d="M295.934 34.4413L292.097 30.6043L295.934 26.7673C296.299 26.4019 296.299 26.0365 295.934 25.671C295.568 25.3056 295.203 25.3056 294.838 25.671L291.001 29.508L287.164 25.671C286.798 25.3056 286.433 25.3056 286.067 25.671C285.702 26.0365 285.702 26.4019 286.067 26.7673L289.904 30.6043L286.067 34.4413C285.702 34.8067 285.702 35.1721 286.067 35.5376C286.433 35.903 286.798 35.903 287.164 35.5376L291.001 31.7006L294.838 35.5376C295.203 35.903 295.568 35.903 295.934 35.5376C296.299 35.1721 296.299 34.624 295.934 34.4413Z" fill="#191919"/>
<path d="M327.726 34.4413L323.889 30.6043L327.726 26.7673C328.091 26.4019 328.091 26.0365 327.726 25.671C327.36 25.3056 326.995 25.3056 326.63 25.671L322.793 29.508L318.956 25.671C318.59 25.3056 318.225 25.3056 317.859 25.671C317.494 26.0365 317.494 26.4019 317.859 26.7673L321.696 30.6043L317.859 34.4413C317.494 34.8067 317.494 35.1721 317.859 35.5376C318.225 35.903 318.59 35.903 318.956 35.5376L322.793 31.7006L326.63 35.5376C326.995 35.903 327.36 35.903 327.726 35.5376C328.091 35.1721 328.091 34.624 327.726 34.4413Z" fill="#191919"/>
<path d="M10.3533 59.6556L6.51637 55.8187L10.3533 51.9817C10.7188 51.6163 10.7188 51.2508 10.3533 50.8854C9.98791 50.52 9.6225 50.52 9.25707 50.8854L5.42008 54.7224L1.58313 50.8854C1.2177 50.52 0.852264 50.52 0.486838 50.8854C0.121412 51.2508 0.121412 51.6163 0.486838 51.9817L4.32382 55.8187L0.486838 59.6556C0.121412 60.021 0.121412 60.3865 0.486838 60.7519C0.852264 61.1173 1.2177 61.1173 1.58313 60.7519L5.42008 56.9149L9.25707 60.7519C9.6225 61.1173 9.98791 61.1173 10.3533 60.7519C10.7188 60.5692 10.7188 60.021 10.3533 59.6556Z" fill="#191919"/>
<path d="M42.1454 59.6556L38.3084 55.8187L42.1454 51.9817C42.5108 51.6163 42.5108 51.2508 42.1454 50.8854C41.78 50.52 41.4145 50.52 41.0491 50.8854L37.2122 54.7224L33.3752 50.8854C33.0098 50.52 32.6443 50.52 32.2789 50.8854C31.9135 51.2508 31.9135 51.6163 32.2789 51.9817L36.1159 55.8187L32.2789 59.6556C31.9135 60.021 31.9135 60.3865 32.2789 60.7519C32.6443 61.1173 33.0098 61.1173 33.3752 60.7519L37.2122 56.9149L41.0491 60.7519C41.4145 61.1173 41.78 61.1173 42.1454 60.7519C42.5108 60.5692 42.5108 60.021 42.1454 59.6556Z" fill="#191919"/>
<path d="M73.7548 59.6556L69.9178 55.8187L73.7548 51.9817C74.1202 51.6163 74.1202 51.2508 73.7548 50.8854C73.3894 50.52 73.0239 50.52 72.6585 50.8854L68.8215 54.7224L64.9846 50.8854C64.6191 50.52 64.2537 50.52 63.8883 50.8854C63.5228 51.2508 63.5228 51.6163 63.8883 51.9817L67.7253 55.8187L63.8883 59.6556C63.5228 60.021 63.5228 60.3865 63.8883 60.7519C64.2537 61.1173 64.6191 61.1173 64.9846 60.7519L68.8215 56.9149L72.6585 60.7519C73.0239 61.1173 73.3894 61.1173 73.7548 60.7519C74.1202 60.5692 74.1202 60.021 73.7548 59.6556Z" fill="#191919"/>
<path d="M105.547 59.6556L101.71 55.8187L105.547 51.9817C105.912 51.6163 105.912 51.2508 105.547 50.8854C105.181 50.52 104.816 50.52 104.45 50.8854L100.614 54.7224L96.7766 50.8854C96.4111 50.52 96.0457 50.52 95.6803 50.8854C95.3149 51.2508 95.3149 51.6163 95.6803 51.9817L99.5172 55.8187L95.6803 59.6556C95.3149 60.021 95.3149 60.3865 95.6803 60.7519C96.0457 61.1173 96.4111 61.1173 96.7766 60.7519L100.614 56.9149L104.45 60.7519C104.816 61.1173 105.181 61.1173 105.547 60.7519C105.912 60.5692 105.912 60.021 105.547 59.6556Z" fill="#191919"/>
<path d="M137.339 59.6556L133.502 55.8187L137.339 51.9817C137.704 51.6163 137.704 51.2508 137.339 50.8854C136.974 50.52 136.608 50.52 136.243 50.8854L132.406 54.7224L128.386 50.8854C128.021 50.52 127.655 50.52 127.29 50.8854C126.924 51.2508 126.924 51.6163 127.29 51.9817L131.127 55.8187L127.29 59.6556C126.924 60.021 126.924 60.3865 127.29 60.7519C127.655 61.1173 128.021 61.1173 128.386 60.7519L132.223 56.9149L136.06 60.7519C136.425 61.1173 136.791 61.1173 137.156 60.7519C137.704 60.5692 137.704 60.021 137.339 59.6556Z" fill="#191919"/>
<path d="M168.948 59.6556L165.111 55.8187L168.948 51.9817C169.314 51.6163 169.314 51.2508 168.948 50.8854C168.583 50.52 168.217 50.52 167.852 50.8854L164.015 54.7224L160.178 50.8854C159.813 50.52 159.447 50.52 159.082 50.8854C158.716 51.2508 158.716 51.6163 159.082 51.9817L162.919 55.8187L159.082 59.6556C158.716 60.021 158.716 60.3865 159.082 60.7519C159.447 61.1173 159.813 61.1173 160.178 60.7519L164.015 56.9149L167.852 60.7519C168.217 61.1173 168.583 61.1173 168.948 60.7519C169.314 60.5692 169.314 60.021 168.948 59.6556Z" fill="#191919"/>
<path d="M200.74 59.6556L196.903 55.8187L200.74 51.9817C201.106 51.6163 201.106 51.2508 200.74 50.8854C200.375 50.52 200.01 50.52 199.644 50.8854L195.807 54.7224L191.97 50.8854C191.605 50.52 191.239 50.52 190.874 50.8854C190.508 51.2508 190.508 51.6163 190.874 51.9817L194.711 55.8187L190.874 59.6556C190.508 60.021 190.508 60.3865 190.874 60.7519C191.239 61.1173 191.605 61.1173 191.97 60.7519L195.807 56.9149L199.644 60.7519C200.01 61.1173 200.375 61.1173 200.74 60.7519C201.106 60.5692 201.106 60.021 200.74 59.6556Z" fill="#191919"/>
<path d="M232.532 59.6556L228.695 55.8187L232.532 51.9817C232.898 51.6163 232.898 51.2508 232.532 50.8854C232.167 50.52 231.801 50.52 231.436 50.8854L227.599 54.7224L223.762 50.8854C223.397 50.52 223.031 50.52 222.666 50.8854C222.3 51.2508 222.3 51.6163 222.666 51.9817L226.503 55.8187L222.666 59.6556C222.3 60.021 222.3 60.3865 222.666 60.7519C223.031 61.1173 223.397 61.1173 223.762 60.7519L227.599 56.9149L231.436 60.7519C231.801 61.1173 232.167 61.1173 232.532 60.7519C232.898 60.5692 232.898 60.021 232.532 59.6556Z" fill="#191919"/>
<path d="M264.142 59.6556L260.305 55.8187L264.142 51.9817C264.507 51.6163 264.507 51.2508 264.142 50.8854C263.776 50.52 263.411 50.52 263.046 50.8854L259.209 54.7224L255.372 50.8854C255.006 50.52 254.641 50.52 254.275 50.8854C253.91 51.2508 253.91 51.6163 254.275 51.9817L258.112 55.8187L254.275 59.6556C253.91 60.021 253.91 60.3865 254.275 60.7519C254.641 61.1173 255.006 61.1173 255.372 60.7519L259.209 56.9149L263.046 60.7519C263.411 61.1173 263.776 61.1173 264.142 60.7519C264.507 60.5692 264.507 60.021 264.142 59.6556Z" fill="#191919"/>
<path d="M295.934 59.6556L292.097 55.8187L295.934 51.9817C296.299 51.6163 296.299 51.2508 295.934 50.8854C295.568 50.52 295.203 50.52 294.838 50.8854L291.001 54.7224L287.164 50.8854C286.798 50.52 286.433 50.52 286.067 50.8854C285.702 51.2508 285.702 51.6163 286.067 51.9817L289.904 55.8187L286.067 59.6556C285.702 60.021 285.702 60.3865 286.067 60.7519C286.433 61.1173 286.798 61.1173 287.164 60.7519L291.001 56.9149L294.838 60.7519C295.203 61.1173 295.568 61.1173 295.934 60.7519C296.299 60.5692 296.299 60.021 295.934 59.6556Z" fill="#191919"/>
<path d="M327.726 59.6556L323.889 55.8187L327.726 51.9817C328.091 51.6163 328.091 51.2508 327.726 50.8854C327.36 50.52 326.995 50.52 326.63 50.8854L322.793 54.7224L318.956 50.8854C318.59 50.52 318.225 50.52 317.859 50.8854C317.494 51.2508 317.494 51.6163 317.859 51.9817L321.696 55.8187L317.859 59.6556C317.494 60.021 317.494 60.3865 317.859 60.7519C318.225 61.1173 318.59 61.1173 318.956 60.7519L322.793 56.9149L326.63 60.7519C326.995 61.1173 327.36 61.1173 327.726 60.7519C328.091 60.3865 328.091 60.021 327.726 59.6556Z" fill="#191919"/>
<path d="M10.3533 85.0531L6.51637 81.2161L10.3533 77.3791C10.7188 77.0137 10.7188 76.6483 10.3533 76.2829C9.98791 75.9174 9.6225 75.9174 9.25707 76.2829L5.42008 80.1198L1.58313 76.2829C1.2177 75.9174 0.852264 75.9174 0.486838 76.2829C0.121412 76.6483 0.121412 77.0137 0.486838 77.3791L4.32382 81.2161L0.486838 85.0531C0.121412 85.4185 0.121412 85.7839 0.486838 86.1494C0.852264 86.5148 1.2177 86.5148 1.58313 86.1494L5.42008 82.3124L9.25707 86.1494C9.6225 86.5148 9.98791 86.5148 10.3533 86.1494C10.7188 85.7839 10.7188 85.2358 10.3533 85.0531Z" fill="#191919"/>
<path d="M42.1454 85.0531L38.3084 81.2161L42.1454 77.3791C42.5108 77.0137 42.5108 76.6483 42.1454 76.2829C41.78 75.9174 41.4145 75.9174 41.0491 76.2829L37.2122 80.1198L33.3752 76.2829C33.0098 75.9174 32.6443 75.9174 32.2789 76.2829C31.9135 76.6483 31.9135 77.0137 32.2789 77.3791L36.1159 81.2161L32.2789 85.0531C31.9135 85.4185 31.9135 85.7839 32.2789 86.1494C32.6443 86.5148 33.0098 86.5148 33.3752 86.1494L37.2122 82.3124L41.0491 86.1494C41.4145 86.5148 41.78 86.5148 42.1454 86.1494C42.5108 85.7839 42.5108 85.2358 42.1454 85.0531Z" fill="#191919"/>
<path d="M73.7548 85.0531L69.9178 81.2161L73.7548 77.3791C74.1202 77.0137 74.1202 76.6483 73.7548 76.2829C73.3894 75.9174 73.0239 75.9174 72.6585 76.2829L68.8215 80.1198L64.9846 76.2829C64.6191 75.9174 64.2537 75.9174 63.8883 76.2829C63.5228 76.6483 63.5228 77.0137 63.8883 77.3791L67.7253 81.2161L63.8883 85.0531C63.5228 85.4185 63.5228 85.7839 63.8883 86.1494C64.2537 86.5148 64.6191 86.5148 64.9846 86.1494L68.8215 82.3124L72.6585 86.1494C73.0239 86.5148 73.3894 86.5148 73.7548 86.1494C74.1202 85.7839 74.1202 85.2358 73.7548 85.0531Z" fill="#191919"/>
<path d="M105.547 85.0531L101.71 81.2161L105.547 77.3791C105.912 77.0137 105.912 76.6483 105.547 76.2829C105.181 75.9174 104.816 75.9174 104.45 76.2829L100.614 80.1198L96.7766 76.2829C96.4111 75.9174 96.0457 75.9174 95.6803 76.2829C95.3149 76.6483 95.3149 77.0137 95.6803 77.3791L99.5172 81.2161L95.6803 85.0531C95.3149 85.4185 95.3149 85.7839 95.6803 86.1494C96.0457 86.5148 96.4111 86.5148 96.7766 86.1494L100.614 82.3124L104.45 86.1494C104.816 86.5148 105.181 86.5148 105.547 86.1494C105.912 85.7839 105.912 85.2358 105.547 85.0531Z" fill="#191919"/>
<path d="M137.339 85.0531L133.502 81.2161L137.339 77.3791C137.704 77.0137 137.704 76.6483 137.339 76.2829C136.973 75.9174 136.608 75.9174 136.243 76.2829L132.406 80.1198L128.569 76.2829C128.203 75.9174 127.838 75.9174 127.472 76.2829C127.107 76.6483 127.107 77.0137 127.472 77.3791L131.309 81.2161L127.472 85.0531C127.107 85.4185 127.107 85.7839 127.472 86.1494C127.838 86.5148 128.203 86.5148 128.569 86.1494L132.406 82.3124L136.243 86.1494C136.608 86.5148 136.973 86.5148 137.339 86.1494C137.704 85.7839 137.704 85.2358 137.339 85.0531Z" fill="#191919"/>
<path d="M168.948 85.0531L165.111 81.2161L168.948 77.3791C169.314 77.0137 169.314 76.6483 168.948 76.2829C168.583 75.9174 168.217 75.9174 167.852 76.2829L164.015 80.1198L160.178 76.2829C159.813 75.9174 159.447 75.9174 159.082 76.2829C158.716 76.6483 158.716 77.0137 159.082 77.3791L162.919 81.2161L159.082 85.0531C158.716 85.4185 158.716 85.7839 159.082 86.1494C159.447 86.5148 159.813 86.5148 160.178 86.1494L164.015 82.3124L167.852 86.1494C168.217 86.5148 168.583 86.5148 168.948 86.1494C169.314 85.7839 169.314 85.2358 168.948 85.0531Z" fill="#191919"/>
<path d="M200.74 85.0531L196.903 81.2161L200.74 77.3791C201.106 77.0137 201.106 76.6483 200.74 76.2829C200.375 75.9174 200.01 75.9174 199.644 76.2829L195.807 80.1198L191.97 76.2829C191.605 75.9174 191.239 75.9174 190.874 76.2829C190.508 76.6483 190.508 77.0137 190.874 77.3791L194.711 81.2161L190.874 85.0531C190.508 85.4185 190.508 85.7839 190.874 86.1494C191.239 86.5148 191.605 86.5148 191.97 86.1494L195.807 82.3124L199.644 86.1494C200.01 86.5148 200.375 86.5148 200.74 86.1494C201.106 85.7839 201.106 85.2358 200.74 85.0531Z" fill="#191919"/>
<path d="M232.532 85.0531L228.695 81.2161L232.532 77.3791C232.898 77.0137 232.898 76.6483 232.532 76.2829C232.167 75.9174 231.801 75.9174 231.436 76.2829L227.599 80.1198L223.762 76.2829C223.397 75.9174 223.031 75.9174 222.666 76.2829C222.3 76.6483 222.3 77.0137 222.666 77.3791L226.503 81.2161L222.666 85.0531C222.3 85.4185 222.3 85.7839 222.666 86.1494C223.031 86.5148 223.397 86.5148 223.762 86.1494L227.599 82.3124L231.436 86.1494C231.801 86.5148 232.167 86.5148 232.532 86.1494C232.898 85.7839 232.898 85.2358 232.532 85.0531Z" fill="#191919"/>
<path d="M264.142 85.0531L260.305 81.2161L264.142 77.3791C264.507 77.0137 264.507 76.6483 264.142 76.2829C263.776 75.9174 263.411 75.9174 263.046 76.2829L259.209 80.1198L255.372 76.2829C255.006 75.9174 254.641 75.9174 254.275 76.2829C253.91 76.6483 253.91 77.0137 254.275 77.3791L258.112 81.2161L254.275 85.0531C253.91 85.4185 253.91 85.7839 254.275 86.1494C254.641 86.5148 255.006 86.5148 255.372 86.1494L259.209 82.3124L263.046 86.1494C263.411 86.5148 263.776 86.5148 264.142 86.1494C264.507 85.7839 264.507 85.2358 264.142 85.0531Z" fill="#191919"/>
<path d="M295.934 85.0531L292.097 81.2161L295.934 77.3791C296.299 77.0137 296.299 76.6483 295.934 76.2829C295.568 75.9174 295.203 75.9174 294.838 76.2829L291.001 80.1198L287.164 76.2829C286.798 75.9174 286.433 75.9174 286.067 76.2829C285.702 76.6483 285.702 77.0137 286.067 77.3791L289.904 81.2161L286.067 85.0531C285.702 85.4185 285.702 85.7839 286.067 86.1494C286.433 86.5148 286.798 86.5148 287.164 86.1494L291.001 82.3124L294.838 86.1494C295.203 86.5148 295.568 86.5148 295.934 86.1494C296.299 85.7839 296.299 85.2358 295.934 85.0531Z" fill="#191919"/>
<path d="M327.726 85.0531L323.889 81.2161L327.726 77.3791C328.091 77.0137 328.091 76.6483 327.726 76.2829C327.36 75.9174 326.995 75.9174 326.63 76.2829L322.793 80.1198L318.956 76.2829C318.59 75.9174 318.225 75.9174 317.859 76.2829C317.494 76.6483 317.494 77.0137 317.859 77.3791L321.696 81.2161L317.859 85.0531C317.494 85.4185 317.494 85.7839 317.859 86.1494C318.225 86.5148 318.59 86.5148 318.956 86.1494L322.793 82.3124L326.63 86.1494C326.995 86.5148 327.36 86.5148 327.726 86.1494C328.091 85.7839 328.091 85.2358 327.726 85.0531Z" fill="#191919"/>
<path d="M10.3533 110.267L6.51637 106.43L10.3533 102.593C10.7188 102.228 10.7188 101.862 10.3533 101.497C9.98791 101.132 9.6225 101.132 9.25707 101.497L5.42008 105.334L1.58313 101.497C1.2177 101.132 0.852264 101.132 0.486838 101.497C0.121412 101.862 0.121412 102.228 0.486838 102.593L4.32382 106.43L0.486838 110.267C0.121412 110.633 0.121412 110.998 0.486838 111.363C0.852264 111.729 1.2177 111.729 1.58313 111.363L5.42008 107.526L9.25707 111.363C9.6225 111.729 9.98791 111.729 10.3533 111.363C10.7188 110.998 10.7188 110.633 10.3533 110.267Z" fill="#191919"/>
<path d="M42.1454 110.267L38.3084 106.43L42.1454 102.593C42.5108 102.228 42.5108 101.862 42.1454 101.497C41.78 101.132 41.4145 101.132 41.0491 101.497L37.2122 105.334L33.3752 101.497C33.0098 101.132 32.6443 101.132 32.2789 101.497C31.9135 101.862 31.9135 102.228 32.2789 102.593L36.1159 106.43L32.2789 110.267C31.9135 110.633 31.9135 110.998 32.2789 111.363C32.6443 111.729 33.0098 111.729 33.3752 111.363L37.2122 107.526L41.0491 111.363C41.4145 111.729 41.78 111.729 42.1454 111.363C42.5108 110.998 42.5108 110.633 42.1454 110.267Z" fill="#191919"/>
<path d="M73.7548 110.267L69.9178 106.43L73.7548 102.593C74.1202 102.228 74.1202 101.862 73.7548 101.497C73.3894 101.132 73.0239 101.132 72.6585 101.497L68.8215 105.334L64.9846 101.497C64.6191 101.132 64.2537 101.132 63.8883 101.497C63.5228 101.862 63.5228 102.228 63.8883 102.593L67.7253 106.43L63.8883 110.267C63.5228 110.633 63.5228 110.998 63.8883 111.363C64.2537 111.729 64.6191 111.729 64.9846 111.363L68.8215 107.526L72.6585 111.363C73.0239 111.729 73.3894 111.729 73.7548 111.363C74.1202 110.998 74.1202 110.633 73.7548 110.267Z" fill="#191919"/>
<path d="M105.547 110.267L101.71 106.43L105.547 102.593C105.912 102.228 105.912 101.862 105.547 101.497C105.181 101.132 104.816 101.132 104.45 101.497L100.614 105.334L96.7766 101.497C96.4111 101.132 96.0457 101.132 95.6803 101.497C95.3149 101.862 95.3149 102.228 95.6803 102.593L99.5172 106.43L95.6803 110.267C95.3149 110.633 95.3149 110.998 95.6803 111.363C96.0457 111.729 96.4111 111.729 96.7766 111.363L100.614 107.526L104.45 111.363C104.816 111.729 105.181 111.729 105.547 111.363C105.912 110.998 105.912 110.633 105.547 110.267Z" fill="#191919"/>
<path d="M137.339 110.267L133.502 106.43L137.339 102.593C137.704 102.228 137.704 101.862 137.339 101.497C136.973 101.132 136.608 101.132 136.243 101.497L132.406 105.334L128.569 101.497C128.203 101.132 127.838 101.132 127.472 101.497C127.107 101.862 127.107 102.228 127.472 102.593L131.309 106.43L127.472 110.267C127.107 110.633 127.107 110.998 127.472 111.363C127.838 111.729 128.203 111.729 128.569 111.363L132.406 107.526L136.243 111.363C136.608 111.729 136.973 111.729 137.339 111.363C137.704 110.998 137.704 110.633 137.339 110.267Z" fill="#191919"/>
<path d="M168.948 110.267L165.111 106.43L168.948 102.593C169.314 102.228 169.314 101.862 168.948 101.497C168.583 101.132 168.217 101.132 167.852 101.497L164.015 105.334L160.178 101.497C159.813 101.132 159.447 101.132 159.082 101.497C158.716 101.862 158.716 102.228 159.082 102.593L162.919 106.43L159.082 110.267C158.716 110.633 158.716 110.998 159.082 111.363C159.447 111.729 159.813 111.729 160.178 111.363L164.015 107.526L167.852 111.363C168.217 111.729 168.583 111.729 168.948 111.363C169.314 110.998 169.314 110.633 168.948 110.267Z" fill="#191919"/>
<path d="M200.74 110.267L196.903 106.43L200.74 102.593C201.106 102.228 201.106 101.862 200.74 101.497C200.375 101.132 200.01 101.132 199.644 101.497L195.807 105.334L191.97 101.497C191.605 101.132 191.239 101.132 190.874 101.497C190.508 101.862 190.508 102.228 190.874 102.593L194.711 106.43L190.874 110.267C190.508 110.633 190.508 110.998 190.874 111.363C191.239 111.729 191.605 111.729 191.97 111.363L195.807 107.526L199.644 111.363C200.01 111.729 200.375 111.729 200.74 111.363C201.106 110.998 201.106 110.633 200.74 110.267Z" fill="#191919"/>
<path d="M232.532 110.267L228.695 106.43L232.532 102.593C232.898 102.228 232.898 101.862 232.532 101.497C232.167 101.132 231.801 101.132 231.436 101.497L227.599 105.334L223.762 101.497C223.397 101.132 223.031 101.132 222.666 101.497C222.3 101.862 222.3 102.228 222.666 102.593L226.503 106.43L222.666 110.267C222.3 110.633 222.3 110.998 222.666 111.363C223.031 111.729 223.397 111.729 223.762 111.363L227.599 107.526L231.436 111.363C231.801 111.729 232.167 111.729 232.532 111.363C232.898 110.998 232.898 110.633 232.532 110.267Z" fill="#191919"/>
<path d="M264.142 110.267L260.305 106.43L264.142 102.593C264.507 102.228 264.507 101.862 264.142 101.497C263.776 101.132 263.411 101.132 263.046 101.497L259.209 105.334L255.372 101.497C255.006 101.132 254.641 101.132 254.275 101.497C253.91 101.862 253.91 102.228 254.275 102.593L258.112 106.43L254.275 110.267C253.91 110.633 253.91 110.998 254.275 111.363C254.641 111.729 255.006 111.729 255.372 111.363L259.209 107.526L263.046 111.363C263.411 111.729 263.776 111.729 264.142 111.363C264.507 110.998 264.507 110.633 264.142 110.267Z" fill="#191919"/>
<path d="M295.934 110.267L292.097 106.43L295.934 102.593C296.299 102.228 296.299 101.862 295.934 101.497C295.568 101.132 295.203 101.132 294.838 101.497L291.001 105.334L287.164 101.497C286.798 101.132 286.433 101.132 286.067 101.497C285.702 101.862 285.702 102.228 286.067 102.593L289.904 106.43L286.067 110.267C285.702 110.633 285.702 110.998 286.067 111.363C286.433 111.729 286.798 111.729 287.164 111.363L291.001 107.526L294.838 111.363C295.203 111.729 295.568 111.729 295.934 111.363C296.299 110.998 296.299 110.633 295.934 110.267Z" fill="#191919"/>
<path d="M327.726 110.267L323.889 106.43L327.726 102.593C328.091 102.228 328.091 101.862 327.726 101.497C327.36 101.132 326.995 101.132 326.63 101.497L322.793 105.334L318.956 101.497C318.59 101.132 318.225 101.132 317.859 101.497C317.494 101.862 317.494 102.228 317.859 102.593L321.696 106.43L317.859 110.267C317.494 110.633 317.494 110.998 317.859 111.363C318.225 111.729 318.59 111.729 318.956 111.363L322.793 107.526L326.63 111.363C326.995 111.729 327.36 111.729 327.726 111.363C328.091 110.998 328.091 110.633 327.726 110.267Z" fill="#191919"/>
</svg>
