<svg width="305" height="197" viewBox="0 0 305 197" fill="none" xmlns="http://www.w3.org/2000/svg">
<path d="M17.0684 186.915C19.6279 187.381 21.4894 189.94 21.024 192.5C20.5587 195.059 17.9991 196.921 15.4396 196.455C12.88 195.99 11.0185 193.43 11.4839 190.871C11.9492 188.079 14.5088 186.45 17.0684 186.915Z" fill="#151515"/>
<path d="M17.0684 149.453C19.6279 149.918 21.4894 152.478 21.024 155.037C20.5587 157.597 17.9991 159.458 15.4396 158.993C12.88 158.528 11.0185 155.968 11.4839 153.409C11.9492 150.849 14.5088 148.988 17.0684 149.453Z" fill="#151515"/>
<path d="M17.0684 112.223C19.6279 112.689 21.4894 115.248 21.024 117.808C20.5587 120.367 17.9991 122.229 15.4396 121.763C12.88 121.298 11.0185 118.738 11.4839 116.179C11.9492 113.387 14.5088 111.525 17.0684 112.223Z" fill="#151515"/>
<path d="M17.0684 74.7611C19.6279 75.2265 21.4894 77.7861 21.024 80.3456C20.5587 82.9051 17.9991 84.7666 15.4396 84.3013C12.88 83.8359 11.0185 81.2763 11.4839 78.7168C11.9492 75.9246 14.5088 74.2957 17.0684 74.7611Z" fill="#151515"/>
<path d="M17.0684 37.2988C19.6279 37.7642 21.4894 40.3238 21.024 42.8833C20.5587 45.4429 17.9991 47.3042 15.4396 46.8389C12.88 46.3735 11.0185 43.8141 11.4839 41.2545C11.9492 38.695 14.5088 36.8335 17.0684 37.2988Z" fill="#151515"/>
<path d="M17.0684 0.0715473C19.6279 0.536917 21.4894 3.09651 21.024 5.65604C20.5587 8.21558 17.9991 10.0769 15.4396 9.61158C12.88 9.14621 11.0185 6.58676 11.4839 4.02722C11.9492 1.46769 14.5088 -0.393823 17.0684 0.0715473Z" fill="#151515"/>
<path d="M48.7135 186.915C51.273 187.381 53.1345 189.94 52.6692 192.5C52.2038 195.059 49.6442 196.921 47.0847 196.455C44.5251 195.99 42.6638 193.43 43.1291 190.871C43.5945 188.079 45.9213 186.45 48.7135 186.915Z" fill="#151515"/>
<path d="M48.7135 149.453C51.273 149.918 53.1345 152.478 52.6692 155.037C52.2038 157.597 49.6442 159.458 47.0847 158.993C44.5251 158.528 42.6638 155.968 43.1291 153.409C43.5945 150.849 45.9213 148.988 48.7135 149.453Z" fill="#151515"/>
<path d="M48.7135 112.223C51.273 112.689 53.1345 115.248 52.6692 117.808C52.2038 120.367 49.6442 122.229 47.0847 121.763C44.5251 121.298 42.6638 118.738 43.1291 116.179C43.5945 113.387 45.9213 111.525 48.7135 112.223Z" fill="#151515"/>
<path d="M48.7135 74.7614C51.273 75.2267 53.1345 77.7863 52.6692 80.3458C52.2038 82.9054 49.6442 84.7669 47.0847 84.3015C44.5251 83.8362 42.6638 81.2766 43.1291 78.717C43.5945 75.9248 45.9213 74.296 48.7135 74.7614Z" fill="#151515"/>
<path d="M48.7135 37.2988C51.273 37.7642 53.1345 40.3238 52.6692 42.8833C52.2038 45.4429 49.6442 47.3042 47.0847 46.8389C44.5251 46.3735 42.6638 43.8141 43.1291 41.2545C43.5945 38.695 45.9213 36.8335 48.7135 37.2988Z" fill="#151515"/>
<path d="M48.7135 0.0717914C51.273 0.537161 53.1345 3.09675 52.6692 5.65629C52.2038 8.21582 49.6442 10.0772 47.0847 9.61182C44.5251 9.14645 42.6638 6.587 43.1291 4.02747C43.5945 1.46793 45.9213 -0.393579 48.7135 0.0717914Z" fill="#151515"/>
<path d="M80.1261 186.915C82.6856 187.381 84.5471 189.94 84.0818 192.5C83.6164 195.059 81.0568 196.921 78.4973 196.455C75.9377 195.99 74.0764 193.43 74.5417 190.871C75.0071 188.079 77.5666 186.45 80.1261 186.915Z" fill="#151515"/>
<path d="M80.1261 149.453C82.6856 149.918 84.5471 152.478 84.0818 155.037C83.6164 157.597 81.0568 159.458 78.4973 158.993C75.9377 158.528 74.0764 155.968 74.5417 153.409C75.0071 150.849 77.5666 148.988 80.1261 149.453Z" fill="#151515"/>
<path d="M80.1261 112.223C82.6856 112.689 84.5471 115.248 84.0818 117.808C83.6164 120.367 81.0568 122.229 78.4973 121.763C75.9377 121.298 74.0764 118.738 74.5417 116.179C75.0071 113.387 77.5666 111.525 80.1261 112.223Z" fill="#151515"/>
<path d="M80.1261 74.7609C82.6856 75.2262 84.5471 77.7858 84.0818 80.3454C83.6164 82.9049 81.0568 84.7664 78.4973 84.301C75.9377 83.8357 74.0764 81.2761 74.5417 78.7165C75.0071 75.9243 77.5666 74.2955 80.1261 74.7609Z" fill="#151515"/>
<path d="M80.1261 37.2988C82.6856 37.7642 84.5471 40.3238 84.0818 42.8833C83.6164 45.4429 81.0568 47.3042 78.4973 46.8389C75.9377 46.3735 74.0764 43.8141 74.5417 41.2545C75.0071 38.695 77.5666 36.8335 80.1261 37.2988Z" fill="#151515"/>
<path d="M80.1261 0.0717914C82.6856 0.537161 84.5471 3.09675 84.0818 5.65629C83.6164 8.21582 81.0568 10.0772 78.4973 9.61182C75.9377 9.14645 74.0764 6.587 74.5417 4.02747C75.0071 1.46793 77.5666 -0.393579 80.1261 0.0717914Z" fill="#151515"/>
<path d="M111.538 186.915C114.098 187.381 115.959 189.94 115.494 192.5C115.029 195.059 112.469 196.921 109.91 196.455C107.35 195.99 105.489 193.43 105.954 190.871C106.419 188.079 108.979 186.45 111.538 186.915Z" fill="#151515"/>
<path d="M111.538 149.453C114.098 149.918 115.959 152.478 115.494 155.037C115.029 157.597 112.469 159.458 109.91 158.993C107.35 158.528 105.489 155.968 105.954 153.409C106.419 150.849 108.979 148.988 111.538 149.453Z" fill="#151515"/>
<path d="M111.538 112.223C114.098 112.689 115.959 115.248 115.494 117.808C115.029 120.367 112.469 122.229 109.91 121.763C107.35 121.298 105.489 118.738 105.954 116.179C106.419 113.387 108.979 111.525 111.538 112.223Z" fill="#151515"/>
<path d="M111.538 74.7609C114.098 75.2262 115.959 77.7858 115.494 80.3454C115.029 82.9049 112.469 84.7664 109.91 84.301C107.35 83.8357 105.489 81.2761 105.954 78.7165C106.419 75.9243 108.979 74.2955 111.538 74.7609Z" fill="#151515"/>
<path d="M111.538 37.2988C114.098 37.7642 115.959 40.3238 115.494 42.8833C115.029 45.4429 112.469 47.3042 109.91 46.8389C107.35 46.3735 105.489 43.8141 105.954 41.2545C106.419 38.695 108.979 36.8335 111.538 37.2988Z" fill="#151515"/>
<path d="M111.538 0.0715473C114.098 0.536917 115.959 3.09651 115.494 5.65604C115.029 8.21558 112.469 10.0769 109.91 9.61158C107.35 9.14621 105.489 6.58676 105.954 4.02722C106.419 1.46769 108.979 -0.393823 111.538 0.0715473Z" fill="#151515"/>
<path d="M143.184 186.915C145.743 187.381 147.605 189.94 147.139 192.5C146.674 195.059 144.114 196.921 141.555 196.455C138.995 195.99 137.134 193.43 137.599 190.871C137.832 188.079 140.391 186.45 143.184 186.915Z" fill="#151515"/>
<path d="M143.184 149.453C145.743 149.918 147.605 152.478 147.139 155.037C146.674 157.597 144.115 159.458 141.555 158.993C138.995 158.528 137.134 155.968 137.599 153.409C137.832 150.849 140.392 148.988 143.184 149.453Z" fill="#151515"/>
<path d="M143.184 112.223C145.743 112.689 147.605 115.248 147.139 117.808C146.674 120.367 144.115 122.229 141.555 121.763C138.995 121.298 137.134 118.738 137.599 116.179C137.832 113.387 140.392 111.525 143.184 112.223Z" fill="#151515"/>
<path d="M143.184 74.7611C145.743 75.2265 147.605 77.7861 147.139 80.3456C146.674 82.9051 144.115 84.7666 141.555 84.3013C138.995 83.8359 137.134 81.2763 137.599 78.7168C137.832 75.9246 140.392 74.2957 143.184 74.7611Z" fill="#151515"/>
<path d="M143.184 37.2988C145.743 37.7642 147.605 40.3238 147.139 42.8833C146.674 45.4429 144.115 47.3042 141.555 46.8389C138.995 46.3735 137.134 43.8141 137.599 41.2545C137.832 38.695 140.392 36.8335 143.184 37.2988Z" fill="#151515"/>
<path d="M143.184 0.0715473C145.743 0.536917 147.605 3.09651 147.139 5.65604C146.674 8.21558 144.115 10.0769 141.555 9.61158C138.995 9.14621 137.134 6.58676 137.599 4.02722C137.832 1.46769 140.392 -0.393823 143.184 0.0715473Z" fill="#151515"/>
<path d="M174.596 186.915C177.156 187.381 179.017 189.94 178.552 192.5C178.086 195.059 175.527 196.921 172.967 196.455C170.408 195.99 168.546 193.43 169.012 190.871C169.477 188.079 172.037 186.45 174.596 186.915Z" fill="#151515"/>
<path d="M174.596 149.453C177.156 149.918 179.017 152.478 178.552 155.037C178.086 157.597 175.527 159.458 172.967 158.993C170.408 158.528 168.546 155.968 169.012 153.409C169.477 150.849 172.037 148.988 174.596 149.453Z" fill="#151515"/>
<path d="M174.596 112.223C177.156 112.689 179.017 115.248 178.552 117.808C178.086 120.367 175.527 122.229 172.967 121.763C170.408 121.298 168.546 118.738 169.012 116.179C169.477 113.387 172.037 111.525 174.596 112.223Z" fill="#151515"/>
<path d="M174.596 74.7609C177.156 75.2262 179.017 77.7858 178.552 80.3454C178.086 82.9049 175.527 84.7664 172.967 84.301C170.408 83.8357 168.546 81.2761 169.012 78.7165C169.477 75.9243 172.037 74.2955 174.596 74.7609Z" fill="#151515"/>
<path d="M174.596 37.2988C177.156 37.7642 179.017 40.3238 178.552 42.8833C178.086 45.4429 175.527 47.3042 172.967 46.8389C170.408 46.3735 168.546 43.8141 169.012 41.2545C169.477 38.695 172.037 36.8335 174.596 37.2988Z" fill="#151515"/>
<path d="M174.596 0.0715473C177.156 0.536917 179.017 3.09651 178.552 5.65604C178.086 8.21558 175.527 10.0769 172.967 9.61158C170.408 9.14621 168.546 6.58676 169.012 4.02722C169.477 1.46769 172.037 -0.393823 174.596 0.0715473Z" fill="#151515"/>
<path d="M206.009 186.915C208.568 187.381 210.429 189.94 209.964 192.5C209.499 195.059 206.939 196.921 204.38 196.455C201.82 195.99 199.959 193.43 200.424 190.871C200.889 188.079 203.449 186.45 206.009 186.915Z" fill="#151515"/>
<path d="M206.009 149.453C208.568 149.918 210.429 152.478 209.964 155.037C209.499 157.597 206.939 159.458 204.38 158.993C201.82 158.528 199.959 155.968 200.424 153.409C200.889 150.849 203.449 148.988 206.009 149.453Z" fill="#151515"/>
<path d="M206.009 112.223C208.568 112.689 210.429 115.248 209.964 117.808C209.499 120.367 206.939 122.229 204.38 121.763C201.82 121.298 199.959 118.738 200.424 116.179C200.889 113.387 203.449 111.525 206.009 112.223Z" fill="#151515"/>
<path d="M206.009 74.7611C208.568 75.2265 210.429 77.7861 209.964 80.3456C209.499 82.9051 206.939 84.7666 204.38 84.3013C201.82 83.8359 199.959 81.2763 200.424 78.7168C200.889 75.9246 203.449 74.2957 206.009 74.7611Z" fill="#151515"/>
<path d="M206.009 37.2988C208.568 37.7642 210.429 40.3238 209.964 42.8833C209.499 45.4429 206.939 47.3042 204.38 46.8389C201.82 46.3735 199.959 43.8141 200.424 41.2545C200.889 38.695 203.449 36.8335 206.009 37.2988Z" fill="#151515"/>
<path d="M206.009 0.0715473C208.568 0.536917 210.429 3.09651 209.964 5.65604C209.499 8.21558 206.939 10.0769 204.38 9.61158C201.82 9.14621 199.959 6.58676 200.424 4.02722C200.889 1.46769 203.449 -0.393823 206.009 0.0715473Z" fill="#151515"/>
<path d="M237.421 186.915C239.981 187.381 241.842 189.94 241.377 192.5C240.911 195.059 238.352 196.921 235.792 196.455C233.233 195.99 231.371 193.43 231.837 190.871C232.302 188.079 234.862 186.45 237.421 186.915Z" fill="#151515"/>
<path d="M241.609 154.339C241.609 151.641 239.422 149.453 236.723 149.453C234.024 149.453 231.837 151.641 231.837 154.339C231.837 157.038 234.024 159.226 236.723 159.226C239.422 159.226 241.609 157.038 241.609 154.339Z" fill="#151515"/>
<path d="M241.517 116.304C241.153 113.63 238.69 111.758 236.016 112.122C233.342 112.486 231.47 114.949 231.834 117.623C232.198 120.297 234.661 122.169 237.335 121.805C240.009 121.441 241.881 118.978 241.517 116.304Z" fill="#151515"/>
<path d="M237.421 74.7609C239.981 75.2262 241.842 77.7858 241.377 80.3454C240.911 82.9049 238.352 84.7664 235.792 84.301C233.233 83.8357 231.371 81.2761 231.837 78.7165C232.302 75.9243 234.862 74.2955 237.421 74.7609Z" fill="#151515"/>
<path d="M237.421 37.2988C239.981 37.7642 241.842 40.3238 241.377 42.8833C240.911 45.4429 238.352 47.3042 235.792 46.8389C233.233 46.3735 231.371 43.8141 231.837 41.2545C232.302 38.695 234.862 36.8335 237.421 37.2988Z" fill="#151515"/>
<path d="M237.421 0.0715473C239.981 0.536917 241.842 3.09651 241.377 5.65604C240.911 8.21558 238.352 10.0769 235.792 9.61158C233.233 9.14621 231.371 6.58676 231.837 4.02722C232.302 1.46769 234.862 -0.393823 237.421 0.0715473Z" fill="#151515"/>
<path d="M269.066 186.915C271.626 187.381 273.487 189.94 273.022 192.5C272.557 195.059 269.997 196.921 267.438 196.455C264.878 195.99 263.017 193.43 263.482 190.871C263.947 188.079 266.274 186.45 269.066 186.915Z" fill="#151515"/>
<path d="M273.022 154.339C273.022 151.641 270.834 149.453 268.135 149.453C265.437 149.453 263.249 151.641 263.249 154.339C263.249 157.038 265.437 159.226 268.135 159.226C270.834 159.226 273.022 157.038 273.022 154.339Z" fill="#151515"/>
<path d="M272.929 116.314C272.564 113.64 270.101 111.768 267.428 112.132C264.754 112.496 262.882 114.959 263.246 117.633C263.61 120.307 266.073 122.179 268.747 121.815C271.421 121.45 273.293 118.988 272.929 116.314Z" fill="#151515"/>
<path d="M269.066 74.7609C271.626 75.2262 273.487 77.7858 273.022 80.3454C272.557 82.9049 269.997 84.7664 267.438 84.301C264.878 83.8357 263.017 81.2761 263.482 78.7165C263.947 75.9243 266.274 74.2955 269.066 74.7609Z" fill="#151515"/>
<path d="M269.066 37.2988C271.626 37.7642 273.487 40.3238 273.022 42.8833C272.557 45.4429 269.997 47.3042 267.438 46.8389C264.878 46.3735 263.017 43.8141 263.482 41.2545C263.947 38.695 266.274 36.8335 269.066 37.2988Z" fill="#151515"/>
<path d="M269.066 0.0715473C271.626 0.536917 273.487 3.09651 273.022 5.65604C272.557 8.21558 269.997 10.0769 267.438 9.61158C264.878 9.14621 263.017 6.58676 263.482 4.02722C263.947 1.46769 266.274 -0.393823 269.066 0.0715473Z" fill="#151515"/>
<path d="M300.479 186.915C303.038 187.381 304.9 189.94 304.434 192.5C303.969 195.059 301.409 196.921 298.85 196.455C296.29 195.99 294.429 193.43 294.894 190.871C295.359 188.079 297.919 186.45 300.479 186.915Z" fill="#151515"/>
<path d="M304.434 154.339C304.434 151.641 302.247 149.453 299.548 149.453C296.849 149.453 294.662 151.641 294.662 154.339C294.662 157.038 296.849 159.226 299.548 159.226C302.247 159.226 304.434 157.038 304.434 154.339Z" fill="#151515"/>
<path d="M304.34 116.324C303.976 113.65 301.513 111.778 298.839 112.142C296.165 112.506 294.293 114.969 294.657 117.643C295.022 120.317 297.484 122.189 300.158 121.825C302.832 121.46 304.704 118.998 304.34 116.324Z" fill="#151515"/>
<path d="M300.479 74.7609C303.038 75.2262 304.9 77.7858 304.434 80.3454C303.969 82.9049 301.409 84.7664 298.85 84.301C296.29 83.8357 294.429 81.2761 294.894 78.7165C295.359 75.9243 297.919 74.2955 300.479 74.7609Z" fill="#151515"/>
<path d="M300.479 37.2988C303.038 37.7642 304.9 40.3238 304.434 42.8833C303.969 45.4429 301.409 47.3042 298.85 46.8389C296.29 46.3735 294.429 43.8141 294.894 41.2545C295.359 38.695 297.919 36.8335 300.479 37.2988Z" fill="#151515"/>
<path d="M300.479 0.0715473C303.038 0.536917 304.9 3.09651 304.434 5.65604C303.969 8.21558 301.409 10.0769 298.85 9.61158C296.29 9.14621 294.429 6.58676 294.894 4.02722C295.359 1.46769 297.919 -0.393823 300.479 0.0715473Z" fill="#151515"/>
</svg>
