<svg width="88" height="88" viewBox="0 0 88 88" fill="none" xmlns="http://www.w3.org/2000/svg">
<path d="M86.3353 40.0765L47.9123 1.65723C46.8471 0.595915 45.4047 0 43.901 0C42.3973 0 40.9549 0.595915 39.8896 1.65723L31.9293 9.63223L42.0493 19.7522C43.2433 19.3477 44.5267 19.2862 45.7539 19.5747C46.9811 19.8632 48.1027 20.49 48.9914 21.3841C49.8801 22.2782 50.5003 23.4035 50.7814 24.6324C51.0625 25.8613 50.9933 27.1444 50.5816 28.3359L60.3276 38.0892C61.77 37.5877 63.3399 37.5909 64.7802 38.0983C66.2205 38.6057 67.4458 39.5872 68.2554 40.882C69.0649 42.1769 69.4107 43.7083 69.2361 45.2253C69.0615 46.7424 68.3768 48.1551 67.2943 49.2322C66.6687 49.8588 65.9257 50.3559 65.1078 50.6951C64.2898 51.0343 63.4131 51.2089 62.5276 51.2089C61.6422 51.2089 60.7654 51.0343 59.9475 50.6951C59.1296 50.3559 58.3866 49.8588 57.761 49.2322C56.8235 48.292 56.1832 47.0969 55.9198 45.7956C55.6564 44.4943 55.7815 43.1443 56.2796 41.9135L47.1533 32.8349V56.7599C47.7986 57.0752 48.4073 57.5042 48.9426 58.0359C50.1983 59.3046 50.9027 61.0175 50.9027 62.8025C50.9027 64.5876 50.1983 66.3005 48.9426 67.5692C48.3147 68.1977 47.5691 68.6963 46.7483 69.0365C45.9276 69.3766 45.0479 69.5517 44.1595 69.5517C43.271 69.5517 42.3913 69.3766 41.5706 69.0365C40.7499 68.6963 40.0042 68.1977 39.3763 67.5692C38.7495 66.9445 38.2521 66.2021 37.9128 65.3848C37.5734 64.5675 37.3987 63.6912 37.3987 62.8062C37.3987 61.9212 37.5734 61.0449 37.9128 60.2276C38.2521 59.4103 38.7495 58.6679 39.3763 58.0432C40.0436 57.3832 40.7953 56.8845 41.5946 56.5545V32.3949C40.7715 32.0584 40.0233 31.562 39.3933 30.9344C38.7634 30.3068 38.2641 29.5605 37.9244 28.7387C37.5848 27.9169 37.4115 27.0359 37.4147 26.1466C37.4178 25.2574 37.5972 24.3776 37.9426 23.5582L27.9986 13.5666L1.65 39.8969C-0.55 42.1152 -0.55 45.7049 1.65 47.9232L40.0766 86.3389C40.6028 86.8655 41.2275 87.2832 41.9152 87.5683C42.6028 87.8533 43.3399 88 44.0843 88C44.8287 88 45.5658 87.8533 46.2535 87.5683C46.9411 87.2832 47.5659 86.8655 48.092 86.3389L86.3353 48.0955C86.8629 47.5696 87.2815 46.9447 87.5671 46.2567C87.8528 45.5686 87.9998 44.831 87.9998 44.086C87.9998 43.3411 87.8528 42.6034 87.5671 41.9154C87.2815 41.2274 86.8629 40.6025 86.3353 40.0765Z" fill="#F4511E"/>
</svg>
