<svg width="39" height="112" viewBox="0 0 39 112" fill="none" xmlns="http://www.w3.org/2000/svg">
<path d="M28.5106 20.1985L33.7553 11.0992L39 1.99997H28.5106H18L23.2448 11.0992L28.5106 20.1985Z" fill="#1A1A1A"/>
<path d="M28.5106 38.397L33.7553 29.2978L39 20.1985H28.5106H18L23.2448 29.2978L28.5106 38.397Z" fill="#1A1A1A"/>
<path d="M28.5106 56.5956L33.7553 47.4963L39 38.397H28.5106H18L23.2448 47.4963L28.5106 56.5956Z" fill="#1A1A1A"/>
<path d="M28.5106 74.7941L33.7553 65.6948L39 56.5956H28.5106H18L23.2448 65.6948L28.5106 74.7941Z" fill="#1A1A1A"/>
<path d="M28.5106 92.9926L33.7553 83.8934L39 74.7941H28.5106H18L23.2448 83.8934L28.5106 92.9926Z" fill="#1A1A1A"/>
<path d="M28.5106 111.191L33.7553 102.092L39 92.9926H28.5106H18L23.2448 102.092L28.5106 111.191Z" fill="#1A1A1A"/>
<path d="M5.02702 11V4.184H2.33902V2.6H9.65902V4.184H6.97102V11H5.02702ZM4.75861 19.984H8.80261V21.496H4.75861V19.984ZM4.90261 23.44H9.47461V25H2.97061V16.6H9.31861V18.16H4.90261V23.44ZM1.26553 39V30.6H2.87353L6.44953 36.528H5.59753L9.11353 30.6H10.7095L10.7335 39H8.90953L8.89753 33.396H9.23353L6.42553 38.112H5.54953L2.68153 33.396H3.08953V39H1.26553ZM1.26553 67V58.6H2.87353L6.44953 64.528H5.59753L9.11353 58.6H10.7095L10.7335 67H8.90953L8.89753 61.396H9.23353L6.42553 66.112H5.54953L2.68153 61.396H3.08953V67H1.26553ZM1.29825 81L5.04225 72.6H6.96225L10.7183 81H8.67825L5.60625 73.584H6.37425L3.29025 81H1.29825ZM3.17025 79.2L3.68625 77.724H8.00625L8.53425 79.2H3.17025ZM5.02725 95V86.6H6.97125V95H5.02725ZM5.92983 109.144C5.25783 109.144 4.61383 109.056 3.99783 108.88C3.38183 108.696 2.88583 108.46 2.50983 108.172L3.16983 106.708C3.52983 106.964 3.95383 107.176 4.44183 107.344C4.93783 107.504 5.43783 107.584 5.94183 107.584C6.32583 107.584 6.63383 107.548 6.86583 107.476C7.10583 107.396 7.28183 107.288 7.39383 107.152C7.50583 107.016 7.56183 106.86 7.56183 106.684C7.56183 106.46 7.47383 106.284 7.29783 106.156C7.12183 106.02 6.88983 105.912 6.60183 105.832C6.31383 105.744 5.99383 105.664 5.64183 105.592C5.29783 105.512 4.94983 105.416 4.59783 105.304C4.25383 105.192 3.93783 105.048 3.64983 104.872C3.36183 104.696 3.12583 104.464 2.94183 104.176C2.76583 103.888 2.67783 103.52 2.67783 103.072C2.67783 102.592 2.80583 102.156 3.06183 101.764C3.32583 101.364 3.71783 101.048 4.23783 100.816C4.76583 100.576 5.42583 100.456 6.21783 100.456C6.74583 100.456 7.26583 100.52 7.77783 100.648C8.28983 100.768 8.74183 100.952 9.13383 101.2L8.53383 102.676C8.14183 102.452 7.74983 102.288 7.35783 102.184C6.96583 102.072 6.58183 102.016 6.20583 102.016C5.82983 102.016 5.52183 102.06 5.28183 102.148C5.04183 102.236 4.86983 102.352 4.76583 102.496C4.66183 102.632 4.60983 102.792 4.60983 102.976C4.60983 103.192 4.69783 103.368 4.87383 103.504C5.04983 103.632 5.28183 103.736 5.56983 103.816C5.85783 103.896 6.17383 103.976 6.51783 104.056C6.86983 104.136 7.21783 104.228 7.56183 104.332C7.91383 104.436 8.23383 104.576 8.52183 104.752C8.80983 104.928 9.04183 105.16 9.21783 105.448C9.40183 105.736 9.49383 106.1 9.49383 106.54C9.49383 107.012 9.36183 107.444 9.09783 107.836C8.83383 108.228 8.43783 108.544 7.90983 108.784C7.38983 109.024 6.72983 109.144 5.92983 109.144Z" fill="#191919"/>
</svg>
