<svg width="88" height="88" viewBox="0 0 88 88" fill="none" xmlns="http://www.w3.org/2000/svg">
<path d="M0 0H88V88H0V0ZM80.7913 67.012C80.1497 62.997 77.5353 59.6237 69.7803 56.4777C67.0817 55.2127 64.0823 54.3327 63.1913 52.2977C62.8577 51.0877 62.8063 50.4277 63.0227 49.7127C63.5727 47.344 66.3777 46.6327 68.5777 47.2927C70.0077 47.7327 71.3277 48.8327 72.1563 50.5927C75.9477 48.114 75.9477 48.114 78.5913 46.4677C77.6013 44.9277 77.11 44.264 76.4427 43.6077C74.1327 41.0227 71.0563 39.7027 66.0513 39.8163L63.4663 40.1427C60.9877 40.7477 58.6263 42.0677 57.1963 43.8277C53.0163 48.5613 54.2227 56.8113 59.2827 60.2213C64.2877 63.9613 71.6063 64.7827 72.5413 68.3063C73.4213 72.5963 69.3513 73.9713 65.3327 73.4763C62.359 72.8163 60.7127 71.3277 58.8977 68.5777L52.1877 72.4313C52.9577 74.1913 53.8377 74.9577 55.1577 76.4977C61.5377 82.9363 77.4877 82.6063 80.3513 72.8163C80.4577 72.4863 81.2313 70.2313 80.6227 66.7663L80.7913 67.012ZM47.8537 40.447H39.611C39.611 47.553 39.578 54.615 39.578 61.732C39.578 66.2493 39.809 70.3963 39.072 71.6723C37.862 74.1987 34.7453 73.876 33.33 73.4323C31.878 72.7137 31.141 71.7237 30.2867 70.2973C30.0557 69.9123 29.8833 69.5787 29.821 69.5787L23.1293 73.7037C24.2477 76.0137 25.8793 78.001 27.984 79.266C31.119 81.136 35.332 81.741 39.743 80.751C42.614 79.9223 45.089 78.2173 46.3833 75.5773C48.2533 72.1673 47.8573 67.9873 47.839 63.3087C47.883 55.7773 47.839 48.2423 47.839 40.6523L47.8537 40.447Z" fill="#F4511E"/>
</svg>
