<svg width="40" height="87" viewBox="0 0 40 87" fill="none" xmlns="http://www.w3.org/2000/svg">
<g clip-path="url(#clip0_405_119)">
<path d="M27.4333 9.68188C23.8333 5.38265 20.7333 0.948024 20.1333 0.0678681C20.0667 0.000163774 19.9667 0.000163774 19.9 0.0678681C19.2667 0.981876 16.1667 5.38265 12.5667 9.71573C-18.3 49.6951 17.4333 76.6753 17.4333 76.6753L17.7333 76.8784C18 81.0422 18.6667 87.034 18.6667 87.034H20H21.3333C21.3333 87.034 22 81.076 22.2667 76.8784L22.5667 76.6414C22.5667 76.6414 58.3 49.6951 27.4333 9.68188ZM20 76.0659C20 76.0659 18.4 74.678 17.9667 73.9671V73.8994L19.9 30.3655C19.9 30.2301 20.1 30.2301 20.1 30.3655L22 73.8655V73.9332C21.5667 74.678 20 76.0659 20 76.0659Z" fill="#F4511E"/>
</g>
<defs>
<clipPath id="clip0_405_119">
<rect width="40" height="87" fill="white"/>
</clipPath>
</defs>
</svg>
