<svg width="78" height="88" viewBox="0 0 78 88" fill="none" xmlns="http://www.w3.org/2000/svg">
<g clip-path="url(#clip0_405_118)">
<path d="M39.3295 87.4768C38.1594 87.4768 36.9972 87.1682 35.9714 86.5744L25.2822 80.2126C23.6857 79.3151 24.4647 78.9976 24.9913 78.8147C27.12 78.0654 27.552 77.8962 29.8241 76.599C30.063 76.4621 30.3755 76.5104 30.62 76.6554L38.8318 81.5541C39.1283 81.7152 39.5491 81.7152 39.824 81.5541L71.8426 62.9747C72.1391 62.8055 72.3315 62.4591 72.3315 62.1046V24.9619C72.3315 24.5913 72.1391 24.261 71.8362 24.0756L39.8304 5.51239C39.5339 5.33514 39.1412 5.33514 38.8446 5.51239L6.84529 24.0756C6.53512 24.2529 6.33796 24.5993 6.33796 24.9539V62.0965C6.33796 62.451 6.53031 62.7894 6.83487 62.9586L15.6029 68.0506C20.3636 70.4435 23.2729 67.6236 23.2729 64.7875V28.1283C23.2729 27.6046 23.6817 27.2018 24.2026 27.2018H28.2581C28.763 27.2018 29.1797 27.6046 29.1797 28.1283V64.8036C29.1797 71.1848 25.7174 74.8507 19.6984 74.8507C17.847 74.8507 16.3883 74.8507 12.3169 72.8365L3.91753 67.97C1.84174 66.7615 0.559387 64.5055 0.559387 62.0965V24.9539C0.559387 22.5368 1.84174 20.2808 3.91753 19.0884L35.9682 0.500951C37.9959 -0.651196 40.6888 -0.651196 42.7005 0.500951L74.711 19.0964C76.7788 20.2969 78.0692 22.5448 78.0692 24.9619V62.1046C78.0692 64.5136 76.7788 66.7615 74.711 67.97L42.7005 86.5575C41.6746 87.1537 40.5125 87.4599 39.3263 87.4599" fill="#F4511E"/>
<path d="M49.2196 61.8829C35.2099 61.8829 32.2726 55.418 32.2726 49.9957C32.2726 49.48 32.6861 49.0691 33.1999 49.0691H37.3354C37.7923 49.0691 38.177 49.4035 38.2491 49.8571C38.8742 54.0935 40.7336 56.2302 49.2051 56.2302C55.9535 56.2302 58.8227 54.6977 58.8227 51.1003C58.8227 49.0297 58.0052 47.4908 47.5221 46.4595C38.754 45.5893 33.3361 43.6476 33.3361 36.5978C33.3361 30.1038 38.7861 26.2365 47.9148 26.2365C58.1655 26.2365 63.2468 29.8138 63.888 37.5001C63.9121 37.766 63.8159 38.0238 63.6396 38.2172C63.4632 38.4025 63.2148 38.5153 62.9583 38.5153H58.7987C58.3659 38.5153 57.9892 38.2091 57.9011 37.7902C56.8992 33.3347 54.4788 31.9086 47.8988 31.9086C40.5333 31.9086 39.6757 34.4868 39.6757 36.4205C39.6757 38.7651 40.6856 39.4499 50.6237 40.7713C60.4657 42.0845 65.1383 43.9376 65.1383 50.8908C65.1383 57.9004 59.3197 61.9208 49.1731 61.9208M88.1724 22.5303H89.2464C90.128 22.5303 90.2963 21.9099 90.2963 21.5473C90.2963 20.5966 89.6471 20.5966 89.2865 20.5966H88.1804L88.1724 22.5303ZM86.8661 19.4847H89.2464C90.0639 19.4847 91.6668 19.4847 91.6668 21.3217C91.6668 22.6028 90.8493 22.8687 90.3604 23.0298C91.3142 23.0943 91.3783 23.7227 91.5065 24.609C91.5706 25.1649 91.6748 26.1237 91.8672 26.446H90.4005C90.3604 26.1237 90.136 24.3511 90.136 24.2545C90.0398 23.8597 89.9036 23.6663 89.4147 23.6663H88.2045V26.454H86.8661V19.4847ZM84.0048 22.9492C84.0048 25.8336 86.3211 28.1702 89.1663 28.1702C92.0355 28.1702 94.3517 25.7853 94.3517 22.9492C94.3517 20.0568 92.0034 17.7605 89.1582 17.7605C86.3531 17.7605 83.9968 20.0245 83.9968 22.9412M95.3456 22.9653C95.3456 26.3815 92.5645 29.1692 89.1743 29.1692C85.8081 29.1692 83.003 26.4137 83.003 22.9653C83.003 19.4525 85.8722 16.7615 89.1743 16.7615C92.5003 16.7615 95.3375 19.4606 95.3375 22.9653" fill="#F4511E"/>
</g>
<defs>
<clipPath id="clip0_405_118">
<rect width="78" height="88" fill="white"/>
</clipPath>
</defs>
</svg>
