<svg width="1199" height="1080" viewBox="0 0 1199 1080" fill="none" xmlns="http://www.w3.org/2000/svg">
<path fill-rule="evenodd" clip-rule="evenodd" d="M668.236 15.4414C665.528 23.638 664.062 32.3999 664.062 41.5042C664.062 87.3481 701.226 124.512 747.07 124.512C762.521 124.512 776.986 120.29 789.375 112.938C788.847 116.72 788.574 120.584 788.574 124.512C788.574 170.356 825.738 207.519 871.581 207.52C871.581 253.364 908.745 290.527 954.589 290.527C958.516 290.527 962.38 290.255 966.162 289.727C958.809 302.115 954.588 316.58 954.588 332.031C954.588 377.875 991.752 415.039 1037.6 415.039C1046.7 415.039 1055.46 413.573 1063.66 410.864C1073.75 452.103 1079.1 495.202 1079.1 539.55C1079.1 837.535 837.535 1079.1 539.55 1079.1C241.565 1079.1 0 837.535 0 539.55C0 241.565 241.565 0 539.55 0C583.899 0 626.997 5.35059 668.236 15.4414ZM622.558 332.031C622.558 354.953 603.976 373.534 581.054 373.534C558.132 373.534 539.55 354.953 539.55 332.031C539.55 309.109 558.132 290.527 581.054 290.527C603.976 290.527 622.558 309.109 622.558 332.031ZM954.59 581.054C977.512 581.054 996.094 562.472 996.094 539.55C996.094 516.628 977.512 498.047 954.59 498.047C931.668 498.047 913.086 516.628 913.086 539.55C913.086 562.472 931.668 581.054 954.59 581.054ZM705.565 830.077C705.565 852.999 686.983 871.581 664.061 871.581C641.139 871.581 622.557 852.999 622.557 830.077C622.557 807.155 641.139 788.573 664.061 788.573C686.983 788.573 705.565 807.155 705.565 830.077ZM249.023 498.046C271.945 498.046 290.527 479.465 290.527 456.543C290.527 433.621 271.945 415.039 249.023 415.039C226.101 415.039 207.519 433.621 207.519 456.543C207.519 479.465 226.101 498.046 249.023 498.046ZM415.039 747.069C415.039 792.913 377.876 830.077 332.032 830.077C286.188 830.077 249.024 792.913 249.024 747.069C249.024 701.225 286.188 664.061 332.032 664.061C377.876 664.061 415.039 701.225 415.039 747.069ZM622.559 622.558C645.481 622.558 664.063 603.976 664.063 581.054C664.063 558.132 645.481 539.55 622.559 539.55C599.637 539.55 581.055 558.132 581.055 581.054C581.055 603.976 599.637 622.558 622.559 622.558ZM415.039 207.519C415.039 230.441 396.457 249.023 373.535 249.023C350.613 249.023 332.031 230.441 332.031 207.519C332.031 184.597 350.613 166.016 373.535 166.016C396.457 166.016 415.039 184.597 415.039 207.519Z" fill="#151515"/>
<circle cx="1132.5" cy="106.5" r="66.5" fill="#151515"/>
<circle cx="866" cy="80" r="40" fill="#151515"/>
<circle cx="1026" cy="213" r="40" fill="#151515"/>
</svg>
