<svg width="803" height="150" viewBox="0 0 803 150" fill="none" xmlns="http://www.w3.org/2000/svg">
<path d="M72.117 103.4L0.716993 76.25V56.75L72.117 29.6V48.35L7.76699 71.75V61.25L72.117 84.65V103.4ZM139.712 120.2C132.912 120.2 126.962 118.7 121.862 115.7C116.762 112.7 112.762 108.15 109.862 102.05C107.062 95.85 105.662 88.05 105.662 78.65C105.662 69.15 107.012 61.35 109.712 55.25C112.412 49.15 116.312 44.6 121.412 41.6C126.512 38.6 132.612 37.1 139.712 37.1C147.312 37.1 154.112 38.85 160.112 42.35C166.212 45.75 171.012 50.55 174.512 56.75C178.112 62.95 179.912 70.25 179.912 78.65C179.912 87.15 178.112 94.5 174.512 100.7C171.012 106.9 166.212 111.7 160.112 115.1C154.112 118.5 147.312 120.2 139.712 120.2ZM92.0119 148.1V38.3H114.362V54.8L113.912 78.8L115.412 102.65V148.1H92.0119ZM135.662 101C139.562 101 143.012 100.1 146.012 98.3C149.112 96.5 151.562 93.95 153.362 90.65C155.262 87.25 156.212 83.25 156.212 78.65C156.212 73.95 155.262 69.95 153.362 66.65C151.562 63.35 149.112 60.8 146.012 59C143.012 57.2 139.562 56.3 135.662 56.3C131.762 56.3 128.262 57.2 125.162 59C122.062 60.8 119.612 63.35 117.812 66.65C116.012 69.95 115.112 73.95 115.112 78.65C115.112 83.25 116.012 87.25 117.812 90.65C119.612 93.95 122.062 96.5 125.162 98.3C128.262 100.1 131.762 101 135.662 101ZM195.576 119V38.3H217.926V61.1L214.776 54.5C217.176 48.8 221.026 44.5 226.326 41.6C231.626 38.6 238.076 37.1 245.676 37.1V58.7C244.676 58.6 243.776 58.55 242.976 58.55C242.176 58.45 241.326 58.4 240.426 58.4C234.026 58.4 228.826 60.25 224.826 63.95C220.926 67.55 218.976 73.2 218.976 80.9V119H195.576ZM297.404 120.2C288.804 120.2 281.154 118.4 274.454 114.8C267.854 111.2 262.604 106.3 258.704 100.1C254.904 93.8 253.004 86.65 253.004 78.65C253.004 70.55 254.904 63.4 258.704 57.2C262.604 50.9 267.854 46 274.454 42.5C281.154 38.9 288.804 37.1 297.404 37.1C305.904 37.1 313.504 38.9 320.204 42.5C326.904 46 332.154 50.85 335.954 57.05C339.754 63.25 341.654 70.45 341.654 78.65C341.654 86.65 339.754 93.8 335.954 100.1C332.154 106.3 326.904 111.2 320.204 114.8C313.504 118.4 305.904 120.2 297.404 120.2ZM297.404 101C301.304 101 304.804 100.1 307.904 98.3C311.004 96.5 313.454 93.95 315.254 90.65C317.054 87.25 317.954 83.25 317.954 78.65C317.954 73.95 317.054 69.95 315.254 66.65C313.454 63.35 311.004 60.8 307.904 59C304.804 57.2 301.304 56.3 297.404 56.3C293.504 56.3 290.004 57.2 286.904 59C283.804 60.8 281.304 63.35 279.404 66.65C277.604 69.95 276.704 73.95 276.704 78.65C276.704 83.25 277.604 87.25 279.404 90.65C281.304 93.95 283.804 96.5 286.904 98.3C290.004 100.1 293.504 101 297.404 101ZM351.295 149.3C347.695 149.3 344.245 148.9 340.945 148.1C337.645 147.4 334.845 146.3 332.545 144.8L338.845 127.85C341.545 129.75 344.845 130.7 348.745 130.7C351.645 130.7 353.945 129.7 355.645 127.7C357.445 125.8 358.345 122.9 358.345 119V38.3H381.745V118.85C381.745 128.15 379.095 135.55 373.795 141.05C368.495 146.55 360.995 149.3 351.295 149.3ZM370.045 27.05C365.745 27.05 362.245 25.8 359.545 23.3C356.845 20.8 355.495 17.7 355.495 14C355.495 10.3 356.845 7.19999 359.545 4.7C362.245 2.19999 365.745 0.949991 370.045 0.949991C374.345 0.949991 377.845 2.14999 380.545 4.55C383.245 6.85 384.595 9.85 384.595 13.55C384.595 17.45 383.245 20.7 380.545 23.3C377.945 25.8 374.445 27.05 370.045 27.05ZM443.341 120.2C434.141 120.2 426.041 118.4 419.041 114.8C412.141 111.2 406.791 106.3 402.991 100.1C399.191 93.8 397.291 86.65 397.291 78.65C397.291 70.55 399.141 63.4 402.841 57.2C406.641 50.9 411.791 46 418.291 42.5C424.791 38.9 432.141 37.1 440.341 37.1C448.241 37.1 455.341 38.8 461.641 42.2C468.041 45.5 473.091 50.3 476.791 56.6C480.491 62.8 482.341 70.25 482.341 78.95C482.341 79.85 482.291 80.9 482.191 82.1C482.091 83.2 481.991 84.25 481.891 85.25H416.341V71.6H469.591L460.591 75.65C460.591 71.45 459.741 67.8 458.041 64.7C456.341 61.6 453.991 59.2 450.991 57.5C447.991 55.7 444.491 54.8 440.491 54.8C436.491 54.8 432.941 55.7 429.841 57.5C426.841 59.2 424.491 61.65 422.791 64.85C421.091 67.95 420.241 71.65 420.241 75.95V79.55C420.241 83.95 421.191 87.85 423.091 91.25C425.091 94.55 427.841 97.1 431.341 98.9C434.941 100.6 439.141 101.45 443.941 101.45C448.241 101.45 451.991 100.8 455.191 99.5C458.491 98.2 461.491 96.25 464.191 93.65L476.641 107.15C472.941 111.35 468.291 114.6 462.691 116.9C457.091 119.1 450.641 120.2 443.341 120.2ZM536.92 120.2C528.22 120.2 520.47 118.45 513.67 114.95C506.87 111.35 501.52 106.4 497.62 100.1C493.82 93.8 491.92 86.65 491.92 78.65C491.92 70.55 493.82 63.4 497.62 57.2C501.52 50.9 506.87 46 513.67 42.5C520.47 38.9 528.22 37.1 536.92 37.1C545.42 37.1 552.82 38.9 559.12 42.5C565.42 46 570.07 51.05 573.07 57.65L554.92 67.4C552.82 63.6 550.17 60.8 546.97 59C543.87 57.2 540.47 56.3 536.77 56.3C532.77 56.3 529.17 57.2 525.97 59C522.77 60.8 520.22 63.35 518.32 66.65C516.52 69.95 515.62 73.95 515.62 78.65C515.62 83.35 516.52 87.35 518.32 90.65C520.22 93.95 522.77 96.5 525.97 98.3C529.17 100.1 532.77 101 536.77 101C540.47 101 543.87 100.15 546.97 98.45C550.17 96.65 552.82 93.8 554.92 89.9L573.07 99.8C570.07 106.3 565.42 111.35 559.12 114.95C552.82 118.45 545.42 120.2 536.92 120.2ZM620.715 120.2C611.215 120.2 603.815 117.8 598.515 113C593.215 108.1 590.565 100.85 590.565 91.25V20.45H613.965V90.95C613.965 94.35 614.865 97 616.665 98.9C618.465 100.7 620.915 101.6 624.015 101.6C627.715 101.6 630.865 100.6 633.465 98.6L639.765 115.1C637.365 116.8 634.465 118.1 631.065 119C627.765 119.8 624.315 120.2 620.715 120.2ZM578.115 58.1V40.1H634.065V58.1H578.115ZM680.051 120.2C673.151 120.2 666.501 119.4 660.101 117.8C653.801 116.1 648.801 114 645.101 111.5L652.901 94.7C656.601 97 660.951 98.9 665.951 100.4C671.051 101.8 676.051 102.5 680.951 102.5C686.351 102.5 690.151 101.85 692.351 100.55C694.651 99.25 695.801 97.45 695.801 95.15C695.801 93.25 694.901 91.85 693.101 90.95C691.401 89.95 689.101 89.2 686.201 88.7C683.301 88.2 680.101 87.7 676.601 87.2C673.201 86.7 669.751 86.05 666.251 85.25C662.751 84.35 659.551 83.05 656.651 81.35C653.751 79.65 651.401 77.35 649.601 74.45C647.901 71.55 647.051 67.8 647.051 63.2C647.051 58.1 648.501 53.6 651.401 49.7C654.401 45.8 658.701 42.75 664.301 40.55C669.901 38.25 676.601 37.1 684.401 37.1C689.901 37.1 695.501 37.7 701.201 38.9C706.901 40.1 711.651 41.85 715.451 44.15L707.651 60.8C703.751 58.5 699.801 56.95 695.801 56.15C691.901 55.25 688.101 54.8 684.401 54.8C679.201 54.8 675.401 55.5 673.001 56.9C670.601 58.3 669.401 60.1 669.401 62.3C669.401 64.3 670.251 65.8 671.951 66.8C673.751 67.8 676.101 68.6 679.001 69.2C681.901 69.8 685.051 70.35 688.451 70.85C691.951 71.25 695.451 71.9 698.951 72.8C702.451 73.7 705.601 75 708.401 76.7C711.301 78.3 713.651 80.55 715.451 83.45C717.251 86.25 718.151 89.95 718.151 94.55C718.151 99.55 716.651 104 713.651 107.9C710.651 111.7 706.301 114.7 700.601 116.9C695.001 119.1 688.151 120.2 680.051 120.2ZM731.088 103.4V84.65L795.438 61.25V71.75L731.088 48.35V29.6L802.488 56.75V76.25L731.088 103.4Z" fill="#151515"/>
</svg>
