<svg width="431" height="80" viewBox="0 0 431 80" fill="none" xmlns="http://www.w3.org/2000/svg">
<path d="M38.3266 54.68L0.246582 40.2V29.8L38.3266 15.32V25.32L4.00658 37.8V32.2L38.3266 44.68V54.68Z" fill="#151515"/>
<path d="M49.8172 63V7.00004H74.0572C79.0705 7.00004 83.3905 7.82671 87.0172 9.48004C90.6439 11.08 93.4439 13.4 95.4172 16.44C97.3905 19.48 98.3772 23.1067 98.3772 27.32C98.3772 31.48 97.3905 35.08 95.4172 38.12C93.4439 41.16 90.6439 43.5067 87.0172 45.16C83.3905 46.76 79.0705 47.56 74.0572 47.56H57.0172L62.7772 41.72V63H49.8172ZM62.7772 43.16L57.0172 37H73.3372C77.3372 37 80.3239 36.1467 82.2972 34.44C84.2705 32.7334 85.2572 30.36 85.2572 27.32C85.2572 24.2267 84.2705 21.8267 82.2972 20.12C80.3239 18.4134 77.3372 17.56 73.3372 17.56H57.0172L62.7772 11.4V43.16Z" fill="#151515"/>
<path d="M106.672 63V19.96H118.592V32.12L116.912 28.6C118.192 25.56 120.245 23.2667 123.072 21.72C125.898 20.12 129.338 19.32 133.392 19.32V30.84C132.858 30.7867 132.378 30.76 131.952 30.76C131.525 30.7067 131.072 30.68 130.592 30.68C127.178 30.68 124.405 31.6667 122.272 33.64C120.192 35.56 119.152 38.5734 119.152 42.68V63H106.672Z" fill="#151515"/>
<path d="M160.98 63.64C156.393 63.64 152.313 62.68 148.74 60.76C145.22 58.84 142.42 56.2267 140.34 52.92C138.313 49.56 137.3 45.7467 137.3 41.48C137.3 37.16 138.313 33.3467 140.34 30.04C142.42 26.68 145.22 24.0667 148.74 22.2C152.313 20.28 156.393 19.32 160.98 19.32C165.513 19.32 169.566 20.28 173.14 22.2C176.713 24.0667 179.513 26.6534 181.54 29.96C183.566 33.2667 184.58 37.1067 184.58 41.48C184.58 45.7467 183.566 49.56 181.54 52.92C179.513 56.2267 176.713 58.84 173.14 60.76C169.566 62.68 165.513 63.64 160.98 63.64ZM160.98 53.4C163.06 53.4 164.926 52.92 166.58 51.96C168.233 51 169.54 49.64 170.5 47.88C171.46 46.0667 171.94 43.9334 171.94 41.48C171.94 38.9734 171.46 36.84 170.5 35.08C169.54 33.32 168.233 31.96 166.58 31C164.926 30.04 163.06 29.56 160.98 29.56C158.9 29.56 157.033 30.04 155.38 31C153.726 31.96 152.393 33.32 151.38 35.08C150.42 36.84 149.94 38.9734 149.94 41.48C149.94 43.9334 150.42 46.0667 151.38 47.88C152.393 49.64 153.726 51 155.38 51.96C157.033 52.92 158.9 53.4 160.98 53.4Z" fill="#151515"/>
<path d="M189.722 79.16C187.802 79.16 185.962 78.9467 184.202 78.52C182.442 78.1467 180.948 77.56 179.722 76.76L183.082 67.72C184.522 68.7334 186.282 69.24 188.362 69.24C189.908 69.24 191.135 68.7067 192.042 67.64C193.002 66.6267 193.482 65.08 193.482 63V19.96H205.962V62.92C205.962 67.88 204.548 71.8267 201.722 74.76C198.895 77.6934 194.895 79.16 189.722 79.16ZM199.722 13.96C197.428 13.96 195.562 13.2934 194.122 11.96C192.682 10.6267 191.962 8.97337 191.962 7.00004C191.962 5.02671 192.682 3.37337 194.122 2.04004C195.562 0.706707 197.428 0.0400391 199.722 0.0400391C202.015 0.0400391 203.882 0.68004 205.322 1.96004C206.762 3.18671 207.482 4.78671 207.482 6.76004C207.482 8.84004 206.762 10.5734 205.322 11.96C203.935 13.2934 202.068 13.96 199.722 13.96Z" fill="#151515"/>
<path d="M238.813 63.64C233.906 63.64 229.586 62.68 225.853 60.76C222.173 58.84 219.319 56.2267 217.293 52.92C215.266 49.56 214.253 45.7467 214.253 41.48C214.253 37.16 215.239 33.3467 217.213 30.04C219.239 26.68 221.986 24.0667 225.453 22.2C228.92 20.28 232.839 19.32 237.213 19.32C241.426 19.32 245.213 20.2267 248.573 22.04C251.986 23.8 254.679 26.36 256.653 29.72C258.626 33.0267 259.613 37 259.613 41.64C259.613 42.12 259.586 42.68 259.533 43.32C259.48 43.9067 259.426 44.4667 259.373 45H224.413V37.72H252.813L248.013 39.88C248.013 37.64 247.559 35.6934 246.653 34.04C245.746 32.3867 244.493 31.1067 242.893 30.2C241.293 29.24 239.426 28.76 237.293 28.76C235.159 28.76 233.266 29.24 231.613 30.2C230.013 31.1067 228.759 32.4134 227.853 34.12C226.946 35.7734 226.493 37.7467 226.493 40.04V41.96C226.493 44.3067 226.999 46.3867 228.013 48.2C229.079 49.96 230.546 51.32 232.413 52.28C234.333 53.1867 236.573 53.64 239.133 53.64C241.426 53.64 243.426 53.2934 245.133 52.6C246.893 51.9067 248.493 50.8667 249.933 49.48L256.573 56.68C254.6 58.92 252.119 60.6534 249.133 61.88C246.146 63.0534 242.706 63.64 238.813 63.64Z" fill="#151515"/>
<path d="M288.722 63.64C284.082 63.64 279.948 62.7067 276.322 60.84C272.695 58.92 269.842 56.28 267.762 52.92C265.735 49.56 264.722 45.7467 264.722 41.48C264.722 37.16 265.735 33.3467 267.762 30.04C269.842 26.68 272.695 24.0667 276.322 22.2C279.948 20.28 284.082 19.32 288.722 19.32C293.255 19.32 297.202 20.28 300.562 22.2C303.922 24.0667 306.402 26.76 308.002 30.28L298.322 35.48C297.202 33.4534 295.788 31.96 294.082 31C292.428 30.04 290.615 29.56 288.642 29.56C286.508 29.56 284.588 30.04 282.882 31C281.175 31.96 279.815 33.32 278.802 35.08C277.842 36.84 277.362 38.9734 277.362 41.48C277.362 43.9867 277.842 46.12 278.802 47.88C279.815 49.64 281.175 51 282.882 51.96C284.588 52.92 286.508 53.4 288.642 53.4C290.615 53.4 292.428 52.9467 294.082 52.04C295.788 51.08 297.202 49.56 298.322 47.48L308.002 52.76C306.402 56.2267 303.922 58.92 300.562 60.84C297.202 62.7067 293.255 63.64 288.722 63.64Z" fill="#151515"/>
<path d="M333.412 63.64C328.346 63.64 324.399 62.36 321.572 59.8C318.746 57.1867 317.332 53.32 317.332 48.2V10.44H329.812V48.04C329.812 49.8534 330.292 51.2667 331.252 52.28C332.212 53.24 333.519 53.72 335.172 53.72C337.146 53.72 338.826 53.1867 340.212 52.12L343.572 60.92C342.292 61.8267 340.746 62.52 338.932 63C337.172 63.4267 335.332 63.64 333.412 63.64ZM310.692 30.52V20.92H340.532V30.52H310.692Z" fill="#151515"/>
<path d="M365.058 63.64C361.378 63.64 357.831 63.2134 354.418 62.36C351.058 61.4534 348.391 60.3334 346.418 59L350.578 50.04C352.551 51.2667 354.871 52.28 357.538 53.08C360.258 53.8267 362.925 54.2 365.538 54.2C368.418 54.2 370.444 53.8534 371.618 53.16C372.844 52.4667 373.458 51.5067 373.458 50.28C373.458 49.2667 372.978 48.52 372.018 48.04C371.111 47.5067 369.884 47.1067 368.338 46.84C366.791 46.5734 365.085 46.3067 363.218 46.04C361.405 45.7734 359.565 45.4267 357.698 45C355.831 44.52 354.124 43.8267 352.578 42.92C351.031 42.0134 349.778 40.7867 348.818 39.24C347.911 37.6934 347.458 35.6934 347.458 33.24C347.458 30.52 348.231 28.12 349.778 26.04C351.378 23.96 353.671 22.3334 356.658 21.16C359.645 19.9334 363.218 19.32 367.378 19.32C370.311 19.32 373.298 19.64 376.338 20.28C379.378 20.92 381.911 21.8534 383.938 23.08L379.778 31.96C377.698 30.7334 375.591 29.9067 373.458 29.48C371.378 29 369.351 28.76 367.378 28.76C364.605 28.76 362.578 29.1334 361.298 29.88C360.018 30.6267 359.378 31.5867 359.378 32.76C359.378 33.8267 359.831 34.6267 360.738 35.16C361.698 35.6934 362.951 36.12 364.498 36.44C366.044 36.76 367.725 37.0534 369.538 37.32C371.405 37.5334 373.271 37.88 375.138 38.36C377.004 38.84 378.684 39.5334 380.178 40.44C381.724 41.2934 382.978 42.4934 383.938 44.04C384.898 45.5334 385.378 47.5067 385.378 49.96C385.378 52.6267 384.578 55 382.978 57.08C381.378 59.1067 379.058 60.7067 376.018 61.88C373.031 63.0534 369.378 63.64 365.058 63.64Z" fill="#151515"/>
<path d="M392.278 54.68V44.68L426.598 32.2V37.8L392.278 25.32V15.32L430.358 29.8V40.2L392.278 54.68Z" fill="#151515"/>
</svg>
