<svg width="99" height="88" viewBox="0 0 99 88" fill="none" xmlns="http://www.w3.org/2000/svg">
<path d="M49.4532 35.183C48.2956 35.183 47.1493 35.411 46.0798 35.854C45.0103 36.297 44.0386 36.9463 43.22 37.7648C42.4014 38.5834 41.7521 39.5552 41.3091 40.6246C40.8661 41.6941 40.6381 42.8404 40.6381 43.998C40.6381 45.1556 40.8661 46.3019 41.3091 47.3714C41.7521 48.4409 42.4014 49.4126 43.22 50.2312C44.0386 51.0497 45.0103 51.699 46.0798 52.142C47.1493 52.585 48.2956 52.813 49.4532 52.813C50.6108 52.813 51.757 52.585 52.8265 52.142C53.896 51.699 54.8678 51.0497 55.6863 50.2312C56.5049 49.4126 57.1542 48.4409 57.5972 47.3714C58.0402 46.3019 58.2682 45.1556 58.2682 43.998C58.2682 42.8404 58.0402 41.6941 57.5972 40.6246C57.1542 39.5552 56.5049 38.5834 55.6863 37.7648C54.8678 36.9463 53.896 36.297 52.8265 35.854C51.757 35.411 50.6108 35.183 49.4532 35.183ZM24.7596 61.5333L22.8144 61.0387C8.31637 57.3751 0 51.1564 0 43.9815C0 36.8067 8.31637 30.588 22.8144 26.9243L24.7596 26.4339L25.3077 28.3626C26.7763 33.4221 28.6549 38.3535 30.9247 43.1079L31.3409 43.9856L30.9247 44.8634C28.6511 49.6162 26.7724 54.5479 25.3077 59.6087L24.7596 61.5333ZM21.9119 31.4287C10.8921 34.5236 4.12934 39.2588 4.12934 43.9815C4.12934 48.7002 10.8921 53.4353 21.9119 56.5344C23.2596 52.2482 24.8868 48.0549 26.783 43.9815C24.8846 39.9091 23.2573 35.7157 21.9119 31.4287ZM74.1468 61.5333L73.5987 59.6005C72.1315 54.5412 70.2514 49.611 67.9775 44.8593L67.5613 43.9815L67.9775 43.1037C70.2506 38.3503 72.1306 33.4187 73.5987 28.3584L74.1468 26.4298L76.0961 26.9202C90.59 30.5838 98.9063 36.8026 98.9063 43.9815C98.9063 51.1605 90.59 57.3751 76.0961 61.0387L74.1468 61.5333ZM72.1233 43.9815C74.1014 48.2633 75.7375 52.471 76.9945 56.5344C88.0184 53.4353 94.777 48.7002 94.777 43.9815C94.777 39.2588 88.0143 34.5277 76.9945 31.4287C75.6486 35.7155 74.0213 39.9089 72.1233 43.9815ZM21.883 31.4081L21.3349 29.4835C17.2592 15.1174 18.4955 4.82286 24.7266 1.22926C30.8382 -2.2984 40.6505 1.86803 50.9326 12.4222L52.3338 13.8604L50.9326 15.2987C47.2791 19.0967 43.941 23.186 40.9513 27.526L40.395 28.3214L39.4265 28.4038C34.1676 28.8183 28.9511 29.6591 23.8282 30.9176L21.883 31.4081ZM29.6966 4.08518C28.5922 4.08518 27.6155 4.32421 26.7913 4.79813C22.6949 7.15952 21.9696 15.3687 24.7925 26.4463C29.1841 25.4693 33.6347 24.7796 38.116 24.3816C40.7017 20.7051 43.5266 17.2028 46.5725 13.8975C40.1436 7.63757 34.0567 4.08518 29.6966 4.08518ZM69.2138 87.999C69.2097 87.999 69.2097 87.999 69.2138 87.999C63.3413 87.999 55.7997 83.577 47.9737 75.5409L46.5725 74.1026L47.9737 72.6644C51.6263 68.8651 54.9631 64.7744 57.9509 60.4329L58.5072 59.6376L59.4715 59.5551C64.7332 59.1429 69.9526 58.3035 75.0781 57.0454L77.0233 56.555L77.5755 58.4837C81.6431 72.8416 80.4108 83.1402 74.1797 86.7297C72.6662 87.5854 70.9524 88.0235 69.2138 87.999ZM52.3338 74.0655C58.7627 80.3255 64.8496 83.8779 69.2097 83.8779H69.2138C70.3142 83.8779 71.295 83.6388 72.1151 83.1649C76.2114 80.8035 76.9409 72.5902 74.1138 61.5127C69.7211 62.491 65.269 63.1807 60.7862 63.5773C58.2036 67.2564 55.38 70.7601 52.3338 74.0655ZM77.0233 31.4081L75.0781 30.9176C69.9532 29.6554 64.7336 28.8147 59.4715 28.4038L58.5072 28.3214L57.9509 27.526C54.9646 23.1846 51.6277 19.0952 47.9737 15.2987L46.5725 13.8604L47.9737 12.4222C58.2517 1.87215 68.0599 -2.29427 74.1797 1.22926C80.4108 4.82286 81.6472 15.1174 77.5755 29.4794L77.0233 31.4081ZM60.7862 24.3816C65.4925 24.8102 69.9639 25.5066 74.1138 26.4463C76.9409 15.3687 76.2114 7.15952 72.1151 4.79813C68.0434 2.44499 60.3906 6.05095 52.3338 13.8975C55.3783 17.203 58.2018 20.7052 60.7862 24.3816ZM29.6966 87.999C27.9567 88.0242 26.2413 87.5862 24.7266 86.7297C18.4955 83.1402 17.2592 72.8457 21.3349 58.4837L21.8789 56.555L23.8241 57.0454C28.5839 58.2446 33.8342 59.0895 39.4224 59.5551L40.3909 59.6376L40.9431 60.4329C43.9332 64.7739 47.2713 68.8645 50.9244 72.6644L52.3256 74.1026L50.9244 75.5409C43.1026 83.577 35.5609 87.999 29.6966 87.999ZM24.7925 61.5127C21.9654 72.5902 22.6949 80.8035 26.7913 83.1649C30.8588 85.4851 38.5075 81.908 46.5725 74.0655C43.5279 70.7577 40.703 67.2542 38.116 63.5773C33.6345 63.181 29.1838 62.4913 24.7925 61.5127ZM49.4532 64.1007C46.0615 64.1007 42.5751 63.9524 39.0845 63.6639L38.116 63.5815L37.5597 62.7861C35.5853 59.9491 33.7292 57.0316 31.9962 54.0411C30.2683 51.0482 28.6652 47.985 27.191 44.8593L26.7789 43.9815L27.191 43.1037C28.665 39.978 30.2681 36.9147 31.9962 33.9219C33.7023 30.9712 35.5774 28.0288 37.5597 25.177L38.116 24.3816L39.0845 24.2992C45.9859 23.714 52.9245 23.714 59.826 24.2992L60.7903 24.3816L61.3425 25.177C65.2954 30.852 68.7651 36.8486 71.7153 43.1037L72.1316 43.9815L71.7153 44.8593C68.7722 51.1182 65.3021 57.1154 61.3425 62.7861L60.7903 63.5815L59.826 63.6639C56.3354 63.9524 52.8448 64.1007 49.4532 64.1007ZM40.3991 59.6334C46.4983 60.0909 52.408 60.0909 58.5113 59.6334C61.9188 54.6521 64.9441 49.4198 67.5613 43.9815C64.9487 38.54 61.9218 33.3072 58.5072 28.3296C52.4798 27.8721 46.4265 27.8721 40.3991 28.3296C36.9831 33.3063 33.9561 38.5391 31.3451 43.9815C33.9651 49.4192 36.9917 54.6513 40.3991 59.6334Z" fill="#F4511E"/>
</svg>
