<svg width="88" height="88" viewBox="0 0 88 88" fill="none" xmlns="http://www.w3.org/2000/svg">
<path d="M44 0C68.299 0 88 19.701 88 44C88 68.299 68.299 88 44 88C19.701 88 0 68.299 0 44C0 19.701 19.701 0 44 0ZM35.255 58.6593C35.8967 61.0243 35.827 63.2353 35.167 65.23L34.9287 65.89C34.8407 66.1137 34.738 66.33 34.6427 66.5353C34.1293 67.5987 33.4473 68.5887 32.6077 69.5053C30.0483 72.2883 26.477 73.3443 24.9443 72.457C23.2943 71.4963 24.1157 67.562 27.0857 64.427C30.2793 61.061 34.859 58.894 34.859 58.894V58.883L35.255 58.6593ZM71.5953 18.8357C69.608 11.0147 56.6463 8.44433 44.3813 12.804C37.0883 15.3963 29.1867 19.47 23.507 24.783C16.7493 31.0933 15.675 36.5933 16.1187 38.8923C17.6843 46.9993 28.7943 52.3013 33.363 56.2357V56.2577C32.0173 56.9177 22.1577 61.864 19.8477 66.9827C17.3727 72.3727 20.2327 76.2263 22.1027 76.7177C27.8777 78.3163 33.8177 75.3977 37.0077 70.6713C40.0877 66.0477 39.8163 60.1077 38.489 57.1927C40.3077 56.6977 42.449 56.4777 45.199 56.8113C52.9027 57.6913 54.4427 62.5313 54.109 64.5113C53.779 66.4877 52.1913 67.6427 51.6377 67.9727C51.0877 68.3063 50.9227 68.4127 50.974 68.6363C51.029 68.9663 51.3077 68.9663 51.744 68.9113C52.349 68.8013 55.7627 67.2613 55.9277 63.5177C56.0927 58.7877 51.579 53.5113 43.5527 53.6177C40.2527 53.6763 38.159 53.9513 36.6777 54.5563C36.5773 54.4028 36.4462 54.2717 36.2927 54.1713C31.3427 48.8363 22.1577 45.0963 22.5427 38.0013C22.6527 35.4163 23.5877 28.6 40.1427 20.35C53.7277 13.5813 64.5663 15.455 66.4363 19.58C69.124 25.4613 60.6577 36.41 46.5227 38.0013C41.1327 38.6063 38.3277 36.52 37.609 35.7463C36.8427 34.9213 36.7327 34.8663 36.4577 35.035C36.0177 35.255 36.2927 35.97 36.4577 36.41C36.8977 37.51 38.6027 39.435 41.5763 40.425C44.1577 41.25 50.4863 41.7413 58.0763 38.775C66.5977 35.4787 73.2527 26.29 71.3277 18.59L71.5953 18.8357Z" fill="#F4511E"/>
</svg>
