<svg width="548" height="121" viewBox="0 0 548 121" fill="none" xmlns="http://www.w3.org/2000/svg">
<path d="M48.0467 103.4L-23.3533 76.25V56.75L48.0467 29.6V48.35L-16.3033 71.75V61.25L48.0467 84.65V103.4ZM104.092 120.8C95.6916 120.8 87.6416 119.7 79.9416 117.5C72.2416 115.2 66.0416 112.25 61.3416 108.65L69.5916 90.35C74.0916 93.55 79.3916 96.2 85.4916 98.3C91.6916 100.3 97.9416 101.3 104.242 101.3C109.042 101.3 112.892 100.85 115.792 99.95C118.792 98.95 120.992 97.6 122.392 95.9C123.792 94.2 124.492 92.25 124.492 90.05C124.492 87.25 123.392 85.05 121.192 83.45C118.992 81.75 116.092 80.4 112.492 79.4C108.892 78.3 104.892 77.3 100.492 76.4C96.1916 75.4 91.8416 74.2 87.4416 72.8C83.1416 71.4 79.1916 69.6 75.5916 67.4C71.9916 65.2 69.0416 62.3 66.7416 58.7C64.5416 55.1 63.4416 50.5 63.4416 44.9C63.4416 38.9 65.0416 33.45 68.2416 28.55C71.5416 23.55 76.4416 19.6 82.9416 16.7C89.5416 13.7 97.7916 12.2 107.692 12.2C114.292 12.2 120.792 13 127.192 14.6C133.592 16.1 139.242 18.4 144.142 21.5L136.642 39.95C131.742 37.15 126.842 35.1 121.942 33.8C117.042 32.4 112.242 31.7 107.542 31.7C102.842 31.7 98.9916 32.25 95.9916 33.35C92.9916 34.45 90.8416 35.9 89.5416 37.7C88.2416 39.4 87.5916 41.4 87.5916 43.7C87.5916 46.4 88.6916 48.6 90.8916 50.3C93.0916 51.9 95.9916 53.2 99.5916 54.2C103.192 55.2 107.142 56.2 111.442 57.2C115.842 58.2 120.192 59.35 124.492 60.65C128.892 61.95 132.892 63.7 136.492 65.9C140.092 68.1 142.992 71 145.192 74.6C147.492 78.2 148.642 82.75 148.642 88.25C148.642 94.15 146.992 99.55 143.692 104.45C140.392 109.35 135.442 113.3 128.842 116.3C122.342 119.3 114.092 120.8 104.092 120.8ZM182.946 102.5L183.546 74L221.196 38.3H249.096L212.946 75.05L200.796 84.95L182.946 102.5ZM163.596 119V7.69999H186.996V119H163.596ZM223.746 119L196.446 85.1L211.146 66.95L252.096 119H223.746ZM262.619 119V38.3H286.019V119H262.619ZM274.319 27.05C270.019 27.05 266.519 25.8 263.819 23.3C261.119 20.8 259.769 17.7 259.769 14C259.769 10.3 261.119 7.19999 263.819 4.7C266.519 2.19999 270.019 0.949991 274.319 0.949991C278.619 0.949991 282.119 2.14999 284.819 4.55C287.519 6.85 288.869 9.85 288.869 13.55C288.869 17.45 287.519 20.7 284.819 23.3C282.219 25.8 278.719 27.05 274.319 27.05ZM307.737 119V7.69999H331.137V119H307.737ZM352.854 119V7.69999H376.254V119H352.854ZM425.121 120.2C418.221 120.2 411.571 119.4 405.171 117.8C398.871 116.1 393.871 114 390.171 111.5L397.971 94.7C401.671 97 406.021 98.9 411.021 100.4C416.121 101.8 421.121 102.5 426.021 102.5C431.421 102.5 435.221 101.85 437.421 100.55C439.721 99.25 440.871 97.45 440.871 95.15C440.871 93.25 439.971 91.85 438.171 90.95C436.471 89.95 434.171 89.2 431.271 88.7C428.371 88.2 425.171 87.7 421.671 87.2C418.271 86.7 414.821 86.05 411.321 85.25C407.821 84.35 404.621 83.05 401.721 81.35C398.821 79.65 396.471 77.35 394.671 74.45C392.971 71.55 392.121 67.8 392.121 63.2C392.121 58.1 393.571 53.6 396.471 49.7C399.471 45.8 403.771 42.75 409.371 40.55C414.971 38.25 421.671 37.1 429.471 37.1C434.971 37.1 440.571 37.7 446.271 38.9C451.971 40.1 456.721 41.85 460.521 44.15L452.721 60.8C448.821 58.5 444.871 56.95 440.871 56.15C436.971 55.25 433.171 54.8 429.471 54.8C424.271 54.8 420.471 55.5 418.071 56.9C415.671 58.3 414.471 60.1 414.471 62.3C414.471 64.3 415.321 65.8 417.021 66.8C418.821 67.8 421.171 68.6 424.071 69.2C426.971 69.8 430.121 70.35 433.521 70.85C437.021 71.25 440.521 71.9 444.021 72.8C447.521 73.7 450.671 75 453.471 76.7C456.371 78.3 458.721 80.55 460.521 83.45C462.321 86.25 463.221 89.95 463.221 94.55C463.221 99.55 461.721 104 458.721 107.9C455.721 111.7 451.371 114.7 445.671 116.9C440.071 119.1 433.221 120.2 425.121 120.2ZM476.158 103.4V84.65L540.508 61.25V71.75L476.158 48.35V29.6L547.558 56.75V76.25L476.158 103.4Z" fill="#151515"/>
</svg>
