<svg width="572" height="121" viewBox="0 0 572 121" fill="none" xmlns="http://www.w3.org/2000/svg">
<path d="M72.0467 103.4L0.646667 76.25V56.75L72.0467 29.6V48.35L7.69667 71.75V61.25L72.0467 84.65V103.4Z" fill="#151515"/>
<path d="M128.092 120.8C119.692 120.8 111.642 119.7 103.942 117.5C96.2416 115.2 90.0416 112.25 85.3416 108.65L93.5916 90.35C98.0916 93.55 103.392 96.2 109.492 98.3C115.692 100.3 121.942 101.3 128.242 101.3C133.042 101.3 136.892 100.85 139.792 99.95C142.792 98.95 144.992 97.6 146.392 95.9C147.792 94.2 148.492 92.25 148.492 90.05C148.492 87.25 147.392 85.05 145.192 83.45C142.992 81.75 140.092 80.4 136.492 79.4C132.892 78.3 128.892 77.3 124.492 76.4C120.192 75.4 115.842 74.2 111.442 72.8C107.142 71.4 103.192 69.6 99.5916 67.4C95.9916 65.2 93.0416 62.3 90.7416 58.7C88.5416 55.1 87.4416 50.5 87.4416 44.9C87.4416 38.9 89.0416 33.45 92.2416 28.55C95.5416 23.55 100.442 19.6 106.942 16.7C113.542 13.7 121.792 12.2 131.692 12.2C138.292 12.2 144.792 13 151.192 14.6C157.592 16.1 163.242 18.4 168.142 21.5L160.642 39.95C155.742 37.15 150.842 35.1 145.942 33.8C141.042 32.4 136.242 31.7 131.542 31.7C126.842 31.7 122.992 32.25 119.992 33.35C116.992 34.45 114.842 35.9 113.542 37.7C112.242 39.4 111.592 41.4 111.592 43.7C111.592 46.4 112.692 48.6 114.892 50.3C117.092 51.9 119.992 53.2 123.592 54.2C127.192 55.2 131.142 56.2 135.442 57.2C139.842 58.2 144.192 59.35 148.492 60.65C152.892 61.95 156.892 63.7 160.492 65.9C164.092 68.1 166.992 71 169.192 74.6C171.492 78.2 172.642 82.75 172.642 88.25C172.642 94.15 170.992 99.55 167.692 104.45C164.392 109.35 159.442 113.3 152.842 116.3C146.342 119.3 138.092 120.8 128.092 120.8Z" fill="#151515"/>
<path d="M206.946 102.5L207.546 74L245.196 38.3H273.096L236.946 75.05L224.796 84.95L206.946 102.5ZM187.596 119V7.69995H210.996V119H187.596ZM247.746 119L220.446 85.1L235.146 66.95L276.096 119H247.746Z" fill="#151515"/>
<path d="M286.619 119V38.3H310.019V119H286.619ZM298.319 27.05C294.019 27.05 290.519 25.8 287.819 23.3C285.119 20.8 283.769 17.7 283.769 14C283.769 10.3 285.119 7.19995 287.819 4.69996C290.519 2.19995 294.019 0.949951 298.319 0.949951C302.619 0.949951 306.119 2.14995 308.819 4.54996C311.519 6.84996 312.869 9.84996 312.869 13.55C312.869 17.45 311.519 20.7 308.819 23.3C306.219 25.8 302.719 27.05 298.319 27.05Z" fill="#151515"/>
<path d="M331.737 119V7.69995H355.137V119H331.737Z" fill="#151515"/>
<path d="M376.854 119V7.69995H400.254V119H376.854Z" fill="#151515"/>
<path d="M449.121 120.2C442.221 120.2 435.571 119.4 429.171 117.8C422.871 116.1 417.871 114 414.171 111.5L421.971 94.7C425.671 97 430.021 98.9 435.021 100.4C440.121 101.8 445.121 102.5 450.021 102.5C455.421 102.5 459.221 101.85 461.421 100.55C463.721 99.25 464.871 97.45 464.871 95.15C464.871 93.25 463.971 91.85 462.171 90.95C460.471 89.95 458.171 89.2 455.271 88.7C452.371 88.2 449.171 87.7 445.671 87.2C442.271 86.7 438.821 86.05 435.321 85.25C431.821 84.35 428.621 83.05 425.721 81.35C422.821 79.65 420.471 77.35 418.671 74.45C416.971 71.55 416.121 67.8 416.121 63.2C416.121 58.1 417.571 53.6 420.471 49.7C423.471 45.8 427.771 42.75 433.371 40.55C438.971 38.25 445.671 37.1 453.471 37.1C458.971 37.1 464.571 37.7 470.271 38.9C475.971 40.1 480.721 41.85 484.521 44.15L476.721 60.8C472.821 58.5 468.871 56.95 464.871 56.15C460.971 55.25 457.171 54.8 453.471 54.8C448.271 54.8 444.471 55.5 442.071 56.9C439.671 58.3 438.471 60.1 438.471 62.3C438.471 64.3 439.321 65.8 441.021 66.8C442.821 67.8 445.171 68.6 448.071 69.2C450.971 69.8 454.121 70.35 457.521 70.85C461.021 71.25 464.521 71.9 468.021 72.8C471.521 73.7 474.671 75 477.471 76.7C480.371 78.3 482.721 80.55 484.521 83.45C486.321 86.25 487.221 89.95 487.221 94.55C487.221 99.55 485.721 104 482.721 107.9C479.721 111.7 475.371 114.7 469.671 116.9C464.071 119.1 457.221 120.2 449.121 120.2Z" fill="#151515"/>
<path d="M500.158 103.4V84.65L564.508 61.25V71.75L500.158 48.35V29.6L571.558 56.75V76.25L500.158 103.4Z" fill="#151515"/>
</svg>
